<svg xmlns="http://www.w3.org/2000/svg" xmlns:xlink="http://www.w3.org/1999/xlink" width="40" height="40" viewBox="0 0 40 40">
  <defs>
    <clipPath id="clip-Calidad">
      <rect width="40" height="40"/>
    </clipPath>
  </defs>
  <g id="Calidad" clip-path="url(#clip-Calidad)">
    <rect width="40" height="40" fill="rgba(255,255,255,0)"/>
    <g id="Grupo_334" data-name="Grupo 334" transform="translate(-545.775 -1548.035)">
      <g id="Grupo_330" data-name="Grupo 330" transform="translate(551.775 1548.035)">
        <g id="Grupo_328" data-name="Grupo 328">
          <path id="Trazado_383" data-name="Trazado 383" d="M565.848,1576.18a3.49,3.49,0,0,1-3.194-2.087,3.56,3.56,0,0,1-3.842.2,3.493,3.493,0,0,1-1.725-3.39l-.1-.593.059.557a3.488,3.488,0,0,1-3.18-5.535,3.562,3.562,0,0,1-2.1-3.227,3.49,3.49,0,0,1,2.087-3.194,3.561,3.561,0,0,1-.2-3.841,3.488,3.488,0,0,1,3.39-1.725l.594-.1-.557.059a3.488,3.488,0,0,1,5.535-3.179,3.564,3.564,0,0,1,3.226-2.1,3.489,3.489,0,0,1,3.194,2.087,3.562,3.562,0,0,1,3.842-.2,3.493,3.493,0,0,1,1.725,3.389l.1.594-.059-.557a3.488,3.488,0,0,1,3.18,5.535,3.561,3.561,0,0,1,2.1,3.226,3.49,3.49,0,0,1-2.087,3.2,3.561,3.561,0,0,1,.2,3.841,3.493,3.493,0,0,1-3.39,1.725l-.036.036a3.489,3.489,0,0,1-5.535,3.18A3.563,3.563,0,0,1,565.848,1576.18Zm-3.216-3.22a1.149,1.149,0,0,1,1.047.684,2.368,2.368,0,0,0,4.337,0,1.142,1.142,0,0,1,1.721-.462,2.368,2.368,0,0,0,3.758-2.158,1.143,1.143,0,0,1,1.269-1.268,2.369,2.369,0,0,0,2.159-3.758,1.142,1.142,0,0,1,.461-1.721,2.368,2.368,0,0,0,0-4.337,1.142,1.142,0,0,1-.461-1.721,2.368,2.368,0,0,0-2.159-3.757,1.144,1.144,0,0,1-1.269-1.27,2.368,2.368,0,0,0-3.758-2.158,1.14,1.14,0,0,1-1.72-.462,2.369,2.369,0,0,0-4.338,0,1.142,1.142,0,0,1-1.721.462,2.367,2.367,0,0,0-3.757,2.158,1.145,1.145,0,0,1-1.269,1.27,2.368,2.368,0,0,0-2.159,3.757,1.142,1.142,0,0,1-.461,1.721,2.368,2.368,0,0,0,0,4.337,1.142,1.142,0,0,1,.461,1.721,2.369,2.369,0,0,0,2.159,3.758,1.143,1.143,0,0,1,1.269,1.268,2.367,2.367,0,0,0,3.757,2.158A1.141,1.141,0,0,1,562.632,1572.96Z" transform="translate(-551.775 -1548.035)" fill="#8dbb2b"/>
        </g>
        <g id="Grupo_329" data-name="Grupo 329" transform="translate(4.199 4.198)">
          <path id="Trazado_384" data-name="Trazado 384" d="M566.477,1572.612a9.875,9.875,0,1,1,9.874-9.875A9.886,9.886,0,0,1,566.477,1572.612Zm0-18.63a8.755,8.755,0,1,0,8.754,8.754A8.764,8.764,0,0,0,566.477,1553.982Z" transform="translate(-556.603 -1552.862)" fill="#8dbb2b"/>
        </g>
      </g>
      <g id="Grupo_333" data-name="Grupo 333" transform="translate(554.233 1572.876)">
        <g id="Grupo_331" data-name="Grupo 331">
          <path id="Trazado_385" data-name="Trazado 385" d="M561.375,1591.757a.559.559,0,0,1-.5-.317l-1.834-3.794-3.58,2.222a.56.56,0,0,1-.833-.632L558.175,1577a.56.56,0,0,1,1.076.312l-3.145,10.833,2.869-1.78a.558.558,0,0,1,.451-.062.565.565,0,0,1,.349.294l1.469,3.04,3.087-10.633a.561.561,0,0,1,1.077.312l-3.494,12.035a.559.559,0,0,1-.49.4Z" transform="translate(-554.602 -1576.598)" fill="#8dbb2b"/>
        </g>
        <g id="Grupo_332" data-name="Grupo 332" transform="translate(12.402)">
          <path id="Trazado_386" data-name="Trazado 386" d="M572.915,1591.757l-.047,0a.559.559,0,0,1-.49-.4l-3.494-12.035a.56.56,0,1,1,1.076-.312l3.087,10.633,1.469-3.04a.565.565,0,0,1,.349-.294.558.558,0,0,1,.451.062l2.869,1.78-3.145-10.833a.56.56,0,0,1,1.076-.312l3.552,12.235a.56.56,0,0,1-.833.632l-3.58-2.222-1.834,3.794A.56.56,0,0,1,572.915,1591.757Z" transform="translate(-568.861 -1576.598)" fill="#8dbb2b"/>
        </g>
      </g>
    </g>
  </g>
</svg>
