<svg xmlns="http://www.w3.org/2000/svg" width="34.955" height="44.705" viewBox="0 0 34.955 44.705">
  <g id="Group_308" data-name="Group 308" transform="translate(379.18 -3299.668)">
    <path id="Path_367" data-name="Path 367" d="M1240.771,704.164a9.518,9.518,0,1,0-9.519-9.519A9.53,9.53,0,0,0,1240.771,704.164Zm0-18.037a8.518,8.518,0,1,1-8.518,8.518A8.528,8.528,0,0,1,1240.771,686.128Z" transform="translate(-1602.787 2632.25)" fill="#8dbb2b" stroke="#8dbb2b" stroke-width="1.5"/>
    <path id="Path_368" data-name="Path 368" d="M1248.48,719.582a17.227,17.227,0,1,0-17.227-17.228A17.247,17.247,0,0,0,1248.48,719.582Zm0-32.644a15.417,15.417,0,1,1-15.417,15.416A15.434,15.434,0,0,1,1248.48,686.938Z" transform="translate(-1610.183 2624.542)" fill="#8dbb2b" stroke="#8dbb2b" stroke-width="0.5"/>
    <path id="Path_369" data-name="Path 369" d="M1233.03,688.681a1.777,1.777,0,1,0-1.777-1.777A1.779,1.779,0,0,0,1233.03,688.681Zm0-3.367a1.59,1.59,0,1,1-1.59,1.59A1.592,1.592,0,0,1,1233.03,685.315Z" transform="translate(-1594.807 2639.734)" fill="#8dbb2b" stroke="#8dbb2b" stroke-width="4"/>
    <path id="Path_370" data-name="Path 370" d="M6.044,0,0,2.621,1.99,4.18,1.72,6.692,7.764,4.071" transform="translate(-367.94 3301.123) rotate(90)" fill="none" stroke="#8dbb2b" stroke-linecap="round" stroke-miterlimit="10" stroke-width="1.5"/>
    <line id="Line_23" data-name="Line 23" x1="8.115" y1="18.882" transform="translate(-369.754 3308.493)" fill="none" stroke="#8dbb2b" stroke-miterlimit="10" stroke-width="2"/>
    <line id="Line_24" data-name="Line 24" x1="3.519" y2="1.76" transform="translate(-371.514 3307.613)" fill="none" stroke="#8dbb2b" stroke-linecap="round" stroke-width="1.5"/>
  </g>
</svg>
