<?xml version="1.0" encoding="utf-8"?>
<!-- Generator: Adobe Illustrator 23.1.0, SVG Export Plug-In . SVG Version: 6.00 Build 0)  -->
<svg version="1.1" id="Group_168" xmlns="http://www.w3.org/2000/svg" xmlns:xlink="http://www.w3.org/1999/xlink" x="0px" y="0px"
	 viewBox="0 0 30.4 30.4" style="enable-background:new 0 0 30.4 30.4;" xml:space="preserve">
<style type="text/css">
	.st0{fill:#8DBB2B;}
</style>
<g id="Group_157" transform="translate(9.627)">
	<g id="Group_156">
		<path id="Path_244" class="st0" d="M12,15.6l-3.2-5.5c2.5-1.8,3-5.3,1.2-7.8c-1.8-2.5-5.3-3-7.8-1.2c-2.5,1.8-3,5.3-1.2,7.8
			c1.6,2.1,4.4,2.8,6.7,1.8l3.2,5.5c0.2,0.3,0.5,0.4,0.8,0.2C12.1,16.2,12.2,15.9,12,15.6L12,15.6L12,15.6z M1.7,7.7
			c-1.2-2.1-0.4-4.8,1.8-6s4.8-0.4,6,1.8c0.7,1.3,0.7,2.9,0,4.2C9.1,7.1,8.6,6.7,8,6.6l-0.2,0C7.9,6.4,7.9,6.2,7.9,6V5.5
			c0-1.3-1-2.3-2.3-2.3s-2.3,1-2.3,2.3V6c0,0.2,0,0.4,0.1,0.6l-0.2,0C2.6,6.8,2,7.1,1.7,7.7L1.7,7.7z M6.7,5.5V6
			c0,0.6-0.5,1.1-1.1,1.1S4.5,6.6,4.5,6c0,0,0,0,0,0V5.5c0-0.6,0.5-1.1,1.1-1.1S6.7,4.9,6.7,5.5C6.7,5.5,6.7,5.5,6.7,5.5L6.7,5.5z
			 M8.5,8.8c-1.7,1.5-4.2,1.5-5.9,0V8.7c0-0.5,0.3-0.9,0.8-0.9L4,7.7c0.9,0.8,2.2,0.8,3.1,0l0.6,0.1C8.2,7.9,8.5,8.3,8.5,8.8
			L8.5,8.8z"/>
	</g>
</g>
<g id="Group_159" transform="translate(14.955 19.254)">
	<g id="Group_158">
		<path id="Path_245" class="st0" d="M9.9,0C7,0,4.6,2.2,4.3,5H0.6C0.3,5,0,5.3,0,5.6c0,0.3,0.3,0.6,0.6,0.6h3.7
			c0.3,3.1,3.1,5.3,6.1,5c3.1-0.3,5.3-3.1,5-6.1C15.1,2.2,12.7,0,9.9,0L9.9,0z M12.8,8.8c-1.7,1.5-4.2,1.5-5.9,0V8.7
			c0-0.5,0.3-0.9,0.8-0.9l0.6-0.1c0.9,0.8,2.2,0.8,3.1,0l0.6,0.1C12.5,7.9,12.8,8.3,12.8,8.8L12.8,8.8z M8.8,6V5.5
			c0-0.6,0.5-1.1,1.1-1.1S11,4.9,11,5.5l0,0V6c0,0.6-0.5,1.1-1.1,1.1S8.8,6.6,8.8,6z M13.7,7.7c-0.3-0.5-0.9-0.9-1.5-1l-0.2,0
			c0.1-0.2,0.1-0.4,0.1-0.6V5.5c0-1.3-1-2.3-2.3-2.3c-1.3,0-2.3,1-2.3,2.3V6c0,0.2,0,0.4,0.1,0.6l-0.2,0C6.9,6.8,6.3,7.1,6,7.7
			c-1.2-2.1-0.4-4.8,1.8-6c2.1-1.2,4.8-0.4,6,1.8C14.5,4.8,14.5,6.4,13.7,7.7L13.7,7.7z"/>
	</g>
</g>
<g id="Group_161" transform="translate(0 13.638)">
	<g id="Group_160">
		<path id="Path_246" class="st0" d="M7.8,6.1l3-5.2c0.2-0.3,0.1-0.6-0.2-0.8C10.2-0.1,9.9,0,9.7,0.3l0,0L6.6,5.7
			c-3-0.6-5.9,1.5-6.5,4.5c-0.6,3,1.5,5.9,4.5,6.5s5.9-1.5,6.5-4.5C11.6,9.6,10.2,7.1,7.8,6.1L7.8,6.1z M8.5,14.5
			c-1.7,1.5-4.2,1.5-5.9,0v-0.1c0-0.5,0.3-0.9,0.8-0.9L4,13.3c0.9,0.8,2.2,0.8,3.1,0l0.6,0.1C8.2,13.5,8.5,13.9,8.5,14.5L8.5,14.5z
			 M4.5,11.6v-0.5C4.5,10.5,5,10,5.6,10c0.6,0,1.1,0.5,1.1,1.1v0.5c0,0.6-0.5,1.1-1.1,1.1C5,12.7,4.5,12.2,4.5,11.6z M9.5,13.3
			c-0.3-0.5-0.9-0.9-1.5-1l-0.2,0c0.1-0.2,0.1-0.4,0.1-0.6v-0.5c0-1.3-1-2.3-2.3-2.3s-2.3,1-2.3,2.3l0,0v0.5c0,0.2,0,0.4,0.1,0.6
			l-0.2,0c-0.6,0.1-1.2,0.5-1.5,1c-1.2-2.1-0.4-4.8,1.8-6c2.1-1.2,4.8-0.4,6,1.8C10.2,10.4,10.2,12,9.5,13.3L9.5,13.3z"/>
	</g>
</g>
<g id="Group_163" transform="translate(12.697 24.246)">
	<g id="Group_162">
		<path id="Path_247" class="st0" d="M1,0.2c-0.2-0.2-0.6-0.2-0.8,0c-0.2,0.2-0.2,0.6,0,0.8S0.8,1.2,1,1c0.1-0.1,0.2-0.3,0.2-0.4
			C1.2,0.4,1.1,0.3,1,0.2z"/>
	</g>
</g>
<g id="Group_165" transform="translate(21.552 17.164)">
	<g id="Group_164">
		<path id="Path_248" class="st0" d="M1,0.2c-0.2-0.2-0.6-0.2-0.8,0c-0.2,0.2-0.2,0.6,0,0.8C0.4,1.2,0.8,1.2,1,1
			c0.1-0.1,0.2-0.3,0.2-0.4C1.2,0.4,1.1,0.3,1,0.2z"/>
	</g>
</g>
<g id="Group_167" transform="translate(10.77 11.658)">
	<g id="Group_166">
		<path id="Path_249" class="st0" d="M1,0.2c-0.2-0.2-0.6-0.2-0.8,0c-0.2,0.2-0.2,0.6,0,0.8C0.4,1.2,0.8,1.2,1,1
			c0.1-0.1,0.2-0.3,0.2-0.4C1.2,0.4,1.1,0.3,1,0.2z"/>
	</g>
</g>
</svg>
