<svg xmlns="http://www.w3.org/2000/svg" width="42" height="41.158" viewBox="0 0 42 41.158">
  <g id="Group_290" data-name="Group 290" transform="translate(1 -4.735)">
    <path id="Path_326" data-name="Path 326" d="M306,96.284V94.17c0-1.2,3.493-3.17,6.343-3.17h0c2.85,0,6.343,1.966,6.343,3.17v2.114" transform="translate(-292.341 -50.391)" fill="none" stroke="#8dbb2b" stroke-linecap="round" stroke-miterlimit="10" stroke-width="2"/>
    <path id="Path_327" data-name="Path 327" d="M312.227,91.568a4.257,4.257,0,0,0,4.227-4.528V85.528a4.237,4.237,0,1,0-8.454,0V87.04A4.257,4.257,0,0,0,312.227,91.568Z" transform="translate(-292.227 -50.959)" fill="none" stroke="#8dbb2b" stroke-linecap="round" stroke-miterlimit="10" stroke-width="2"/>
    <path id="Path_328" data-name="Path 328" d="M318,94.17c0-1.2,3.493-3.17,6.343-3.17h0c2.85,0,6.343,1.966,6.343,3.17v2.114" transform="translate(-290.681 -50.391)" fill="none" stroke="#8dbb2b" stroke-linecap="round" stroke-miterlimit="10" stroke-width="2"/>
    <path id="Path_329" data-name="Path 329" d="M324.227,91.568a4.257,4.257,0,0,0,4.227-4.528V85.528a4.237,4.237,0,1,0-8.454,0V87.04A4.257,4.257,0,0,0,324.227,91.568Z" transform="translate(-290.568 -50.959)" fill="none" stroke="#8dbb2b" stroke-linecap="round" stroke-miterlimit="10" stroke-width="2"/>
    <path id="Path_330" data-name="Path 330" d="M294,96.284V94.17c0-1.2,3.493-3.17,6.343-3.17h0c2.85,0,6.343,1.966,6.343,3.17" transform="translate(-294 -50.391)" fill="none" stroke="#8dbb2b" stroke-linecap="round" stroke-miterlimit="10" stroke-width="2"/>
    <path id="Path_331" data-name="Path 331" d="M300.227,91.568a4.257,4.257,0,0,0,4.227-4.528V85.528a4.237,4.237,0,1,0-8.454,0V87.04A4.257,4.257,0,0,0,300.227,91.568Z" transform="translate(-293.886 -50.959)" fill="none" stroke="#8dbb2b" stroke-linecap="round" stroke-miterlimit="10" stroke-width="2"/>
    <path id="Path_332" data-name="Path 332" d="M309,72v3.17l2.114,2.114h2.114l2.114-2.114V72" transform="translate(-292.17 -51.47)" fill="none" stroke="#8dbb2b" stroke-linecap="round" stroke-miterlimit="10" stroke-width="2"/>
    <path id="Path_333" data-name="Path 333" d="M315.511,72.795V71.738a3.751,3.751,0,0,1,1.188-2.806,6.413,6.413,0,0,0,1.977-4.595,6.338,6.338,0,0,0-12.676,0,6.416,6.416,0,0,0,1.976,4.595,3.757,3.757,0,0,1,1.194,2.806v1.057Z" transform="translate(-292.341 -52.265)" fill="none" stroke="#8dbb2b" stroke-linecap="round" stroke-miterlimit="10" stroke-width="2"/>
  </g>
</svg>
