<svg xmlns="http://www.w3.org/2000/svg" xmlns:xlink="http://www.w3.org/1999/xlink" width="40" height="40" viewBox="0 0 40 40">
  <defs>
    <clipPath id="clip-Experiencia">
      <rect width="40" height="40"/>
    </clipPath>
  </defs>
  <g id="Experiencia" clip-path="url(#clip-Experiencia)">
    <g id="Grupo_373" data-name="Grupo 373" transform="translate(-214.155 -689.935)">
      <g id="Grupo_361" data-name="Grupo 361" transform="translate(215.966 717.06)">
        <path id="Trazado_403" data-name="Trazado 403" d="M222.168,727.8h-5.516a.622.622,0,0,1-.622-.622V718.54a.621.621,0,0,1,.622-.622h5.516a.622.622,0,0,1,.623.622v8.639A.623.623,0,0,1,222.168,727.8Zm-4.894-1.244h4.272v-7.4h-4.272Z" transform="translate(-216.03 -717.918)" fill="#8dbb2b"/>
      </g>
      <g id="Grupo_362" data-name="Grupo 362" transform="translate(225.839 712.124)">
        <path id="Trazado_404" data-name="Trazado 404" d="M232.393,727.625h-5.517a.622.622,0,0,1-.622-.622V713.428a.621.621,0,0,1,.622-.622h5.517a.622.622,0,0,1,.622.622V727A.623.623,0,0,1,232.393,727.625Zm-4.895-1.244h4.273V714.05H227.5Z" transform="translate(-226.254 -712.806)" fill="#8dbb2b"/>
      </g>
      <g id="Grupo_363" data-name="Grupo 363" transform="translate(235.712 717.06)">
        <path id="Trazado_405" data-name="Trazado 405" d="M242.617,727.8H237.1a.622.622,0,0,1-.622-.622V718.54a.621.621,0,0,1,.622-.622h5.517a.622.622,0,0,1,.622.622v8.639A.623.623,0,0,1,242.617,727.8Zm-4.895-1.244h4.273v-7.4h-4.273Z" transform="translate(-236.478 -717.918)" fill="#8dbb2b"/>
      </g>
      <g id="Grupo_364" data-name="Grupo 364" transform="translate(245.585 707.186)">
        <path id="Trazado_406" data-name="Trazado 406" d="M252.841,727.45h-5.517a.622.622,0,0,1-.622-.622V708.316a.622.622,0,0,1,.622-.623h5.517a.623.623,0,0,1,.622.623v18.512A.623.623,0,0,1,252.841,727.45Zm-4.895-1.244h4.273V708.938h-4.273Z" transform="translate(-246.702 -707.693)" fill="#8dbb2b"/>
      </g>
      <g id="Grupo_365" data-name="Grupo 365" transform="translate(239.611 692.935)">
        <path id="Trazado_407" data-name="Trazado 407" d="M241.138,710.737a.623.623,0,0,1-.532-.943l10-16.558a.622.622,0,1,1,1.064.643l-10,16.558A.623.623,0,0,1,241.138,710.737Z" transform="translate(-240.516 -692.935)" fill="#8dbb2b"/>
      </g>
      <g id="Grupo_366" data-name="Grupo 366" transform="translate(230.3 705.869)">
        <path id="Trazado_408" data-name="Trazado 408" d="M238.089,712.024a.617.617,0,0,1-.348-.107l-6.594-4.451a.622.622,0,1,1,.7-1.03l6.594,4.451a.622.622,0,0,1-.349,1.138Z" transform="translate(-230.875 -706.329)" fill="#8dbb2b"/>
      </g>
      <g id="Grupo_367" data-name="Grupo 367" transform="translate(220.525 705.726)">
        <path id="Trazado_409" data-name="Trazado 409" d="M221.375,712.7a.622.622,0,0,1-.394-1.1l6.459-5.271a.622.622,0,0,1,.787.964l-6.46,5.271A.614.614,0,0,1,221.375,712.7Z" transform="translate(-220.752 -706.181)" fill="#8dbb2b"/>
      </g>
      <g id="Grupo_368" data-name="Grupo 368" transform="translate(245.655 692.935)">
        <path id="Trazado_410" data-name="Trazado 410" d="M252.439,698.151a.623.623,0,0,1-.6-.46l-.908-3.372-3.372.908a.622.622,0,1,1-.323-1.2l3.973-1.07a.622.622,0,0,1,.762.438l1.07,3.973a.621.621,0,0,1-.438.762A.63.63,0,0,1,252.439,698.151Z" transform="translate(-246.775 -692.935)" fill="#8dbb2b"/>
      </g>
      <g id="Grupo_369" data-name="Grupo 369" transform="translate(214.155 725.801)">
        <path id="Trazado_411" data-name="Trazado 411" d="M253.533,728.214H214.777a.622.622,0,1,1,0-1.244h38.756a.622.622,0,1,1,0,1.244Z" transform="translate(-214.155 -726.97)" fill="#8dbb2b"/>
      </g>
      <g id="Grupo_370" data-name="Grupo 370" transform="translate(216.807 710.207)">
        <path id="Trazado_412" data-name="Trazado 412" d="M219.44,715.9a2.539,2.539,0,1,1,2.539-2.539A2.542,2.542,0,0,1,219.44,715.9Zm0-3.834a1.294,1.294,0,1,0,1.295,1.295A1.3,1.3,0,0,0,219.44,712.065Z" transform="translate(-216.901 -710.821)" fill="#8dbb2b"/>
      </g>
      <g id="Grupo_371" data-name="Grupo 371" transform="translate(226.68 702.774)">
        <path id="Trazado_413" data-name="Trazado 413" d="M229.664,708.2a2.539,2.539,0,1,1,2.539-2.539A2.542,2.542,0,0,1,229.664,708.2Zm0-3.834a1.294,1.294,0,1,0,1.295,1.295A1.3,1.3,0,0,0,229.664,704.368Z" transform="translate(-227.125 -703.124)" fill="#8dbb2b"/>
      </g>
      <g id="Grupo_372" data-name="Grupo 372" transform="translate(236.553 709.493)">
        <path id="Trazado_414" data-name="Trazado 414" d="M239.888,715.159a2.539,2.539,0,1,1,2.539-2.539A2.542,2.542,0,0,1,239.888,715.159Zm0-3.834a1.295,1.295,0,1,0,1.295,1.295A1.3,1.3,0,0,0,239.888,711.326Z" transform="translate(-237.349 -710.082)" fill="#8dbb2b"/>
      </g>
    </g>
  </g>
</svg>
