<svg xmlns="http://www.w3.org/2000/svg" xmlns:xlink="http://www.w3.org/1999/xlink" width="40" height="40" viewBox="0 0 40 40">
  <defs>
    <clipPath id="clip-Gobierno">
      <rect width="40" height="40"/>
    </clipPath>
  </defs>
  <g id="Gobierno" clip-path="url(#clip-Gobierno)">
    <g id="Grupo_403" data-name="Grupo 403" transform="translate(-722.608 -983.031)">
      <g id="Grupo_380" data-name="Grupo 380" transform="translate(735.032 986.884)">
        <g id="Grupo_374" data-name="Grupo 374" transform="translate(6.99 21.597)">
          <path id="Trazado_415" data-name="Trazado 415" d="M744.513,1021.191a.586.586,0,0,1-.586-.586v-9.417a.586.586,0,1,1,1.173,0v9.417A.586.586,0,0,1,744.513,1021.191Z" transform="translate(-743.927 -1010.6)" fill="#8dbb2b"/>
        </g>
        <g id="Grupo_375" data-name="Grupo 375" transform="translate(0 7.338)">
          <path id="Trazado_416" data-name="Trazado 416" d="M745.774,1021.739a2.532,2.532,0,0,0-3.894,0,2.536,2.536,0,0,1-2.534-2.533v-10.513a2.027,2.027,0,0,1-.753.225,2.135,2.135,0,0,1-2.342-2.124v-8.169a3.686,3.686,0,0,1,3.682-3.682h7.789a3.686,3.686,0,0,1,3.682,3.682v8.169a2.134,2.134,0,0,1-2.342,2.124,2.031,2.031,0,0,1-.753-.225v10.513A2.536,2.536,0,0,1,745.774,1021.739Zm-1.947-3.12a.587.587,0,0,1,.586.586,1.36,1.36,0,1,0,2.721,0v-12.473a.587.587,0,0,1,.586-.587h0a.586.586,0,0,1,.586.585,1,1,0,0,0,.865,1.019.962.962,0,0,0,1.057-.956v-8.169a2.511,2.511,0,0,0-2.509-2.508h-7.789a2.511,2.511,0,0,0-2.509,2.508v8.169a.962.962,0,0,0,1.058.956,1.006,1.006,0,0,0,.864-1.024.587.587,0,0,1,1.174,0v12.479a1.36,1.36,0,1,0,2.721,0A.587.587,0,0,1,743.828,1018.619Z" transform="translate(-736.251 -994.942)" fill="#8dbb2b"/>
        </g>
        <g id="Grupo_376" data-name="Grupo 376" transform="translate(3.095 7.338)">
          <path id="Trazado_417" data-name="Trazado 417" d="M748.025,996.116h-7.789a.587.587,0,0,1,0-1.174h7.789a.587.587,0,0,1,0,1.174Z" transform="translate(-739.65 -994.942)" fill="#8dbb2b"/>
        </g>
        <g id="Grupo_377" data-name="Grupo 377" transform="translate(3.095 12.927)">
          <path id="Trazado_418" data-name="Trazado 418" d="M740.236,1007.861a.587.587,0,0,1-.586-.586v-5.608a.587.587,0,0,1,1.174,0v5.608A.587.587,0,0,1,740.236,1007.861Z" transform="translate(-739.65 -1001.08)" fill="#8dbb2b"/>
        </g>
        <g id="Grupo_378" data-name="Grupo 378" transform="translate(10.882 12.927)">
          <path id="Trazado_419" data-name="Trazado 419" d="M748.788,1007.861a.587.587,0,0,1-.587-.586v-5.608a.587.587,0,0,1,1.174,0v5.608A.587.587,0,0,1,748.788,1007.861Z" transform="translate(-748.201 -1001.08)" fill="#8dbb2b"/>
        </g>
        <g id="Grupo_379" data-name="Grupo 379" transform="translate(4.376)">
          <path id="Trazado_420" data-name="Trazado 420" d="M744.257,993.287a3.2,3.2,0,1,1,3.2-3.2A3.2,3.2,0,0,1,744.257,993.287Zm0-5.23a2.028,2.028,0,1,0,2.028,2.028A2.03,2.03,0,0,0,744.257,988.057Z" transform="translate(-741.056 -986.884)" fill="#8dbb2b"/>
        </g>
      </g>
      <g id="Grupo_402" data-name="Grupo 402" transform="translate(722.608 987.652)">
        <g id="Grupo_387" data-name="Grupo 387" transform="translate(0 11.033)">
          <g id="Grupo_383" data-name="Grupo 383">
            <g id="Grupo_381" data-name="Grupo 381">
              <path id="Trazado_421" data-name="Trazado 421" d="M725.89,1006.405a.585.585,0,0,1-.415-.172l-2.695-2.695a.585.585,0,0,1,0-.829l2.695-2.7a.587.587,0,0,1,.83.83l-2.28,2.28,2.28,2.28a.586.586,0,0,1-.414,1Z" transform="translate(-722.608 -999.843)" fill="#8dbb2b"/>
            </g>
            <g id="Grupo_382" data-name="Grupo 382" transform="translate(0 2.695)">
              <path id="Trazado_422" data-name="Trazado 422" d="M730.74,1003.975h-7.546a.586.586,0,1,1,0-1.173h7.546a.586.586,0,0,1,0,1.173Z" transform="translate(-722.608 -1002.802)" fill="#8dbb2b"/>
            </g>
          </g>
          <g id="Grupo_386" data-name="Grupo 386" transform="translate(31.281)">
            <g id="Grupo_384" data-name="Grupo 384" transform="translate(4.851)">
              <path id="Trazado_423" data-name="Trazado 423" d="M762.872,1006.405a.586.586,0,0,1-.415-1l2.28-2.28-2.28-2.28a.587.587,0,0,1,.83-.83l2.695,2.7a.585.585,0,0,1,0,.829l-2.695,2.695A.585.585,0,0,1,762.872,1006.405Z" transform="translate(-762.286 -999.843)" fill="#8dbb2b"/>
            </g>
            <g id="Grupo_385" data-name="Grupo 385" transform="translate(0 2.695)">
              <path id="Trazado_424" data-name="Trazado 424" d="M765.091,1003.975h-7.545a.586.586,0,1,1,0-1.173h7.545a.586.586,0,1,1,0,1.173Z" transform="translate(-756.959 -1002.802)" fill="#8dbb2b"/>
            </g>
          </g>
        </g>
        <g id="Grupo_394" data-name="Grupo 394" transform="translate(5.686)">
          <g id="Grupo_390" data-name="Grupo 390">
            <g id="Grupo_388" data-name="Grupo 388">
              <path id="Trazado_425" data-name="Trazado 425" d="M729.438,992.712a.587.587,0,0,1-.586-.587v-3.811a.587.587,0,0,1,.586-.587h3.811a.587.587,0,0,1,0,1.174h-3.225v3.225A.587.587,0,0,1,729.438,992.712Z" transform="translate(-728.852 -987.727)" fill="#8dbb2b"/>
            </g>
            <g id="Grupo_389" data-name="Grupo 389" transform="translate(0 0.001)">
              <path id="Trazado_426" data-name="Trazado 426" d="M734.774,994.236a.584.584,0,0,1-.414-.172l-5.336-5.335a.587.587,0,0,1,.83-.83l5.335,5.335a.587.587,0,0,1-.415,1Z" transform="translate(-728.852 -987.728)" fill="#8dbb2b"/>
            </g>
          </g>
          <g id="Grupo_393" data-name="Grupo 393" transform="translate(22.119 22.119)">
            <g id="Grupo_391" data-name="Grupo 391" transform="translate(1.524 1.524)">
              <path id="Trazado_427" data-name="Trazado 427" d="M759.214,1018.675H755.4a.586.586,0,1,1,0-1.173h3.225v-3.224a.586.586,0,1,1,1.173,0v3.811A.586.586,0,0,1,759.214,1018.675Z" transform="translate(-754.816 -1013.691)" fill="#8dbb2b"/>
            </g>
            <g id="Grupo_392" data-name="Grupo 392">
              <path id="Trazado_428" data-name="Trazado 428" d="M759.064,1018.525a.585.585,0,0,1-.414-.171l-5.336-5.335a.586.586,0,0,1,.829-.83l5.335,5.335a.586.586,0,0,1-.414,1Z" transform="translate(-753.142 -1012.017)" fill="#8dbb2b"/>
            </g>
          </g>
        </g>
        <g id="Grupo_401" data-name="Grupo 401" transform="translate(5.686)">
          <g id="Grupo_397" data-name="Grupo 397" transform="translate(0 22.119)">
            <g id="Grupo_395" data-name="Grupo 395" transform="translate(0 1.524)">
              <path id="Trazado_429" data-name="Trazado 429" d="M733.25,1018.675h-3.811a.587.587,0,0,1-.586-.586v-3.811a.586.586,0,1,1,1.173,0v3.224h3.225a.586.586,0,1,1,0,1.173Z" transform="translate(-728.852 -1013.691)" fill="#8dbb2b"/>
            </g>
            <g id="Grupo_396" data-name="Grupo 396">
              <path id="Trazado_430" data-name="Trazado 430" d="M729.438,1018.525a.586.586,0,0,1-.414-1l5.336-5.335a.587.587,0,0,1,.829.83l-5.335,5.335A.589.589,0,0,1,729.438,1018.525Z" transform="translate(-728.852 -1012.017)" fill="#8dbb2b"/>
            </g>
          </g>
          <g id="Grupo_400" data-name="Grupo 400" transform="translate(22.119)">
            <g id="Grupo_398" data-name="Grupo 398" transform="translate(1.524)">
              <path id="Trazado_431" data-name="Trazado 431" d="M759.214,992.712a.587.587,0,0,1-.586-.587V988.9H755.4a.587.587,0,0,1,0-1.174h3.811a.587.587,0,0,1,.586.587v3.811A.587.587,0,0,1,759.214,992.712Z" transform="translate(-754.816 -987.727)" fill="#8dbb2b"/>
            </g>
            <g id="Grupo_399" data-name="Grupo 399" transform="translate(0 0.001)">
              <path id="Trazado_432" data-name="Trazado 432" d="M753.728,994.236a.587.587,0,0,1-.414-1l5.336-5.335a.586.586,0,0,1,.829.83l-5.335,5.335A.582.582,0,0,1,753.728,994.236Z" transform="translate(-753.142 -987.728)" fill="#8dbb2b"/>
            </g>
          </g>
        </g>
      </g>
    </g>
  </g>
</svg>
