<svg xmlns="http://www.w3.org/2000/svg" width="41.94" height="42.614" viewBox="0 0 41.94 42.614">
  <g id="Group_288" data-name="Group 288" transform="translate(0.978 1.311)">
    <ellipse id="Ellipse_252" data-name="Ellipse 252" cx="3.07" cy="3.111" rx="3.07" ry="3.111" transform="translate(9.775 18.666)" fill="none" stroke="#8dbb2b" stroke-linecap="round" stroke-miterlimit="10" stroke-width="2"/>
    <ellipse id="Ellipse_253" data-name="Ellipse 253" cx="3.07" cy="3.111" rx="3.07" ry="3.111" transform="translate(1.003 22.222)" fill="none" stroke="#8dbb2b" stroke-linecap="round" stroke-miterlimit="10" stroke-width="2"/>
    <path id="Path_334" data-name="Path 334" d="M137.143,171.737l2.05-9.693c.339-1.605,1.459-2.418,3.213-2.751l5.264-.889,5.217-4.773s1.73,3-.185,4.828l-3.763,3.774-5.753,1.782" transform="translate(-130 -131.737)" fill="none" stroke="#8dbb2b" stroke-linecap="round" stroke-miterlimit="10" stroke-width="2"/>
    <line id="Line_18" data-name="Line 18" y1="8.889" x2="1.755" transform="translate(15.039 31.111)" fill="none" stroke="#8dbb2b" stroke-linecap="round" stroke-miterlimit="10" stroke-width="2"/>
    <ellipse id="Ellipse_254" data-name="Ellipse 254" cx="3.07" cy="3.111" rx="3.07" ry="3.111" transform="translate(29.546 21.333)" fill="none" stroke="#8dbb2b" stroke-linecap="round" stroke-miterlimit="10" stroke-width="2"/>
    <path id="Path_335" data-name="Path 335" d="M172.275,172.778l-1.966-6.929c-.339-1.6-1.324-2.849-4.1-2.849H155.681s.584,3.556,3.509,3.556h7.018" transform="translate(-132.275 -132.778)" fill="none" stroke="#8dbb2b" stroke-linecap="round" stroke-miterlimit="10" stroke-width="2"/>
    <line id="Line_19" data-name="Line 19" x1="2.23" y1="6.222" transform="translate(31.301 33.778)" fill="none" stroke="#8dbb2b" stroke-linecap="round" stroke-miterlimit="10" stroke-width="2"/>
    <path id="Path_336" data-name="Path 336" d="M129,172.778l1.3-6.138c.339-1.605,1.459-2.418,3.213-2.751L137.9,163" transform="translate(-129 -132.778)" fill="none" stroke="#8dbb2b" stroke-linecap="round" stroke-miterlimit="10" stroke-width="2"/>
    <path id="Path_337" data-name="Path 337" d="M142.59,132.726l-12.128,5.26,3.994,3.128-.541,5.042,12.128-5.26" transform="translate(-129.179 -129.414)" fill="none" stroke="#8dbb2b" stroke-linecap="round" stroke-miterlimit="10" stroke-width="2"/>
    <line id="Line_20" data-name="Line 20" x1="9.723" y1="22.962" transform="translate(12.001)" fill="none" stroke="#8dbb2b" stroke-linecap="round" stroke-miterlimit="10" stroke-width="2"/>
    <line id="Line_21" data-name="Line 21" x1="1.602" y1="3.931" transform="translate(23.079 26.285)" fill="none" stroke="#8dbb2b" stroke-linecap="round" stroke-miterlimit="10" stroke-width="2"/>
    <line id="Line_22" data-name="Line 22" x1="2.534" y1="6.217" transform="translate(26.135 33.783)" fill="none" stroke="#8dbb2b" stroke-linecap="round" stroke-miterlimit="10" stroke-width="2"/>
  </g>
</svg>
