<?xml version="1.0" encoding="utf-8"?>
<!-- Generator: Adobe Illustrator 23.1.0, SVG Export Plug-In . SVG Version: 6.00 Build 0)  -->
<svg version="1.1" id="Capa_1" xmlns="http://www.w3.org/2000/svg" xmlns:xlink="http://www.w3.org/1999/xlink" x="0px" y="0px"
	 viewBox="0 0 35.4 22.2" style="enable-background:new 0 0 35.4 22.2;" xml:space="preserve">
<style type="text/css">
	.st0{fill:#8DBB2B;}
</style>
<g id="Group_147" transform="translate(-2 -187.252)">
	<g id="Group_142" transform="translate(2 187.252)">
		<g id="Group_141" transform="translate(0 0)">
			<path id="Path_236" class="st0" d="M30.9,7.9h-0.6C30.8,7.3,31,6.5,31,5.7v-1c0-1.9-1.6-3.5-3.5-3.5S24,2.8,24,4.7v0.8l-5.2-5.2
				c-0.3-0.3-0.7-0.4-1.1-0.2c-0.4-0.1-0.8,0-1.1,0.2l-5.2,5.2V4.7c0-1.9-1.6-3.5-3.5-3.5c-1.9,0-3.5,1.6-3.5,3.5v1
				c0,0.8,0.3,1.5,0.7,2.1H4.5C2,7.9,0,9.9,0,12.4v9.2c0,0.4,0.3,0.7,0.7,0.7h2.9c0.1,0,0.1,0,0.2,0c0.1,0,0.1,0,0.2,0h7.7
				c0.4,0,0.7-0.3,0.7-0.7v-2.4c0-0.4-0.3-0.7-0.7-0.7c-0.4,0-0.7,0.3-0.7,0.7v1.7H4.7V13c0-0.4-0.3-0.7-0.7-0.7
				c-0.4,0-0.7,0.3-0.7,0.7l0,0v7.9H1.4v-8.5c0-1.7,1.4-3.1,3.1-3.1h4.8c0.2,0,0.4-0.1,0.5-0.2l0,0L17,1.9c0,1.4-0.5,2.8-1.3,4
				l-4.5,6.7c-0.1,0.1-0.1,0.2-0.1,0.4v0.8c0,0.4,0.3,0.7,0.7,0.7c0.4,0,0.7-0.3,0.7-0.7v-0.5l4.4-6.5c0.3-0.5,0.6-1,0.8-1.6
				c0.2,0.6,0.5,1.1,0.8,1.6l4.4,6.5v8.4c0,0.4,0.3,0.7,0.7,0.7h7.7c0.1,0,0.1,0,0.2,0c0.1,0,0.1,0,0.2,0h2.9c0.4,0,0.7-0.3,0.7-0.7
				v-9.2C35.4,9.9,33.4,7.9,30.9,7.9z M10,5.7c0,1.2-1,2.1-2.1,2.1s-2.1-1-2.1-2.1v-1c0-1.2,1-2.1,2.1-2.1s2.1,1,2.1,2.1V5.7z
				 M25.4,4.7c0-1.2,1-2.1,2.1-2.1s2.1,1,2.1,2.1v1c0,1.2-1,2.1-2.1,2.1s-2.1-1-2.1-2.1V4.7z M34,20.9h-1.9v-5.1
				c0-0.4-0.3-0.7-0.7-0.7s-0.7,0.3-0.7,0.7v5.1h-6.4V13c0-0.1,0-0.3-0.1-0.4l-4.5-6.7c-0.8-1.2-1.3-2.6-1.3-4L25.6,9l0,0
				c0.1,0.1,0.3,0.2,0.5,0.2h4.8c1.7,0,3.1,1.4,3.1,3.1L34,20.9L34,20.9z"/>
		</g>
	</g>
</g>
</svg>
