<svg xmlns="http://www.w3.org/2000/svg" xmlns:xlink="http://www.w3.org/1999/xlink" width="40" height="40" viewBox="0 0 40 40">
  <defs>
    <clipPath id="clip-ideas">
      <rect width="40" height="40"/>
    </clipPath>
  </defs>
  <g id="ideas" clip-path="url(#clip-ideas)">
    <rect width="40" height="40" fill="rgba(255,255,255,0)"/>
    <g id="Grupo_265" data-name="Grupo 265" transform="translate(-893.233 -692.414)">
      <g id="Grupo_257" data-name="Grupo 257" transform="translate(903.849 701.347)">
        <g id="Grupo_255" data-name="Grupo 255">
          <path id="Trazado_319" data-name="Trazado 319" d="M912.907,731.873a4.19,4.19,0,0,1-4.2-4.054l-.017-.489a21.972,21.972,0,0,0-3.73-11.4,9.635,9.635,0,0,1-1.569-6.5,9.739,9.739,0,0,1,19.414,1.111,9.661,9.661,0,0,1-1.744,5.557,21.814,21.814,0,0,0-3.951,11.721A4.19,4.19,0,0,1,912.907,731.873Zm.17-29.7a8.771,8.771,0,0,0-.971.054,8.38,8.38,0,0,0-7.353,7.354,8.277,8.277,0,0,0,1.346,5.584,23.331,23.331,0,0,1,3.96,12.114l.018.49a2.832,2.832,0,0,0,5.661,0,23.189,23.189,0,0,1,4.2-12.457,8.367,8.367,0,0,0-6.858-13.14Z" transform="translate(-903.327 -700.805)" fill="#8dbb2b"/>
        </g>
        <g id="Grupo_256" data-name="Grupo 256" transform="translate(5.199 21.784)">
          <path id="Trazado_320" data-name="Trazado 320" d="M912.614,723.5a8.727,8.727,0,0,1-4.058-.948.686.686,0,0,1,.679-1.192,7.9,7.9,0,0,0,6.905-.027.686.686,0,1,1,.574,1.247A9.758,9.758,0,0,1,912.614,723.5Z" transform="translate(-908.211 -721.269)" fill="#8dbb2b"/>
        </g>
      </g>
      <g id="Grupo_258" data-name="Grupo 258" transform="translate(912.902 692.414)">
        <path id="Trazado_321" data-name="Trazado 321" d="M912.518,696.919a.686.686,0,0,1-.686-.685V693.1a.686.686,0,0,1,1.371,0v3.134A.686.686,0,0,1,912.518,696.919Z" transform="translate(-911.832 -692.414)" fill="#8dbb2b"/>
      </g>
      <g id="Grupo_259" data-name="Grupo 259" transform="translate(901.369 696.612)">
        <path id="Trazado_322" data-name="Trazado 322" d="M903.7,700.128a.685.685,0,0,1-.526-.245l-2.014-2.4a.686.686,0,1,1,1.051-.881l2.014,2.4a.684.684,0,0,1-.525,1.125Z" transform="translate(-900.998 -696.358)" fill="#8dbb2b"/>
      </g>
      <g id="Grupo_260" data-name="Grupo 260" transform="translate(895.233 707.24)">
        <path id="Trazado_323" data-name="Trazado 323" d="M899.005,708.257a.761.761,0,0,1-.12-.01L895.8,707.7a.686.686,0,0,1,.238-1.351l3.086.544a.685.685,0,0,1-.118,1.36Z" transform="translate(-895.233 -706.342)" fill="#8dbb2b"/>
      </g>
      <g id="Grupo_261" data-name="Grupo 261" transform="translate(897.364 717.76)">
        <path id="Trazado_324" data-name="Trazado 324" d="M897.922,719.163a.686.686,0,0,1-.344-1.279l2.713-1.567a.686.686,0,1,1,.685,1.188l-2.713,1.567A.686.686,0,0,1,897.922,719.163Z" transform="translate(-897.235 -716.225)" fill="#8dbb2b"/>
      </g>
      <g id="Grupo_262" data-name="Grupo 262" transform="translate(925.727 717.76)">
        <path id="Trazado_325" data-name="Trazado 325" d="M927.279,719.163a.69.69,0,0,1-.343-.092l-2.713-1.567a.686.686,0,0,1,.685-1.188l2.713,1.567a.686.686,0,0,1-.343,1.279Z" transform="translate(-923.88 -716.225)" fill="#8dbb2b"/>
      </g>
      <g id="Grupo_263" data-name="Grupo 263" transform="translate(927.486 707.24)">
        <path id="Trazado_326" data-name="Trazado 326" d="M926.216,708.257a.685.685,0,0,1-.118-1.36l3.086-.544a.686.686,0,0,1,.238,1.351l-3.086.544A.761.761,0,0,1,926.216,708.257Z" transform="translate(-925.532 -706.342)" fill="#8dbb2b"/>
      </g>
      <g id="Grupo_264" data-name="Grupo 264" transform="translate(922.421 696.612)">
        <path id="Trazado_327" data-name="Trazado 327" d="M921.46,700.128a.684.684,0,0,1-.525-1.125l2.014-2.4a.686.686,0,1,1,1.051.881l-2.014,2.4A.685.685,0,0,1,921.46,700.128Z" transform="translate(-920.774 -696.358)" fill="#8dbb2b"/>
      </g>
    </g>
  </g>
</svg>
