<?xml version="1.0" encoding="utf-8"?>
<!-- Generator: Adobe Illustrator 23.1.0, SVG Export Plug-In . SVG Version: 6.00 Build 0)  -->
<svg version="1.1" id="Group_190" xmlns="http://www.w3.org/2000/svg" xmlns:xlink="http://www.w3.org/1999/xlink" x="0px" y="0px"
	 viewBox="0 0 30 30" style="enable-background:new 0 0 30 30;" xml:space="preserve">
<style type="text/css">
	.st0{fill:#8DBB2B;}
</style>
<g id="Group_179" transform="translate(3.159)">
	<g id="Group_178">
		<path id="Path_254" class="st0" d="M17.6,0H6C2.7,0,0,2.7,0,6c0,3,2.3,5.6,5.3,5.9V14c0,0.3,0.3,0.6,0.6,0.6
			c0.2,0,0.3-0.1,0.4-0.2l2.5-2.5h6l2.5,2.5c0.2,0.2,0.6,0.2,0.8,0c0.1-0.1,0.2-0.3,0.2-0.4v-2.1c3.3-0.4,5.6-3.3,5.3-6.6
			C23.2,2.3,20.7,0,17.6,0z M17.7,10.8c-0.3,0-0.6,0.3-0.6,0.6v1.2l-1.6-1.6c-0.1-0.1-0.3-0.2-0.4-0.2H8.6c-0.2,0-0.3,0.1-0.4,0.2
			l-1.6,1.6v-1.2c0-0.3-0.3-0.6-0.6-0.6c-2.6-0.1-4.7-2.3-4.6-5C1.4,3.3,3.5,1.3,6,1.2h11.6c2.6,0.1,4.7,2.3,4.6,5
			C22.2,8.6,20.2,10.7,17.7,10.8L17.7,10.8z"/>
	</g>
</g>
<g id="Group_181" transform="translate(11.356 2.34)">
	<g id="Group_180">
		<path id="Path_255" class="st0" d="M7.6,0.8C7.4,0.6,7,0.6,6.8,0.8L6.4,1.2C5-0.3,2.7-0.4,1.2,0.9C-0.3,2.2-0.4,4.5,0.9,6
			C2.2,7.5,4.5,7.7,6,6.3c1.2-1,1.5-2.7,1-4.1l0.6-0.6C7.8,1.4,7.8,1,7.6,0.8z M3.6,6.1C2.3,6.1,1.2,5,1.2,3.6s1.1-2.5,2.5-2.5
			c0.7,0,1.4,0.3,1.9,0.9L4.1,3.5L3.5,2.9c-0.2-0.2-0.6-0.2-0.8,0c-0.2,0.2-0.2,0.6,0,0.8c0,0,0,0,0,0l1,1c0.2,0.2,0.6,0.2,0.8,0
			L6,3.2c0.2,1.3-0.6,2.6-2,2.8C3.9,6.1,3.8,6.1,3.6,6.1L3.6,6.1z"/>
	</g>
</g>
<g id="Group_183" transform="translate(0 13.81)">
	<g id="Group_182">
		<path id="Path_256" class="st0" d="M8.3,6C8.7,5.4,9,4.8,9,4.1V3c0-1.7-1.3-3-3-3.1s-3,1.3-3.1,3c0,0,0,0.1,0,0.1v1
			c0,0.7,0.2,1.4,0.7,1.9C1.5,6.3,0,8.1,0,10.3v5.3c0,0.3,0.3,0.6,0.6,0.6c0,0,0,0,0,0h10.8c0.3,0,0.6-0.3,0.6-0.6l0,0v-5.3
			C11.9,8.1,10.4,6.3,8.3,6z M4.1,3c0-1,0.8-1.9,1.8-1.9S7.8,2,7.8,3v1c0,1-0.8,1.9-1.8,1.9c-1,0-1.9-0.8-1.9-1.8c0,0,0,0,0,0L4.1,3
			z M10.8,15H1.2v-4.7c0-1.8,1.4-3.2,3.2-3.2h1v1.5c0,0.3,0.3,0.6,0.6,0.6s0.6-0.3,0.6-0.6V7.1h1c1.8,0,3.2,1.4,3.2,3.2L10.8,15z"/>
	</g>
</g>
<g id="Group_185" transform="translate(18.017 13.81)">
	<g id="Group_184">
		<path id="Path_257" class="st0" d="M8.3,6C8.7,5.4,9,4.8,9,4.1V3c0-1.7-1.4-3-3.1-3c-1.6,0-2.9,1.3-3,3v1c0,0.7,0.2,1.4,0.7,1.9
			C1.5,6.3,0,8.1,0,10.3v5.3c0,0.3,0.3,0.6,0.6,0.6h10.8c0.3,0,0.6-0.3,0.6-0.6v-5.3C11.9,8.1,10.4,6.3,8.3,6z M4.1,3
			c0-1,0.8-1.9,1.9-1.9S7.8,2,7.8,3v1c0,1-0.8,1.9-1.9,1.9S4.1,5.1,4.1,4.1l0,0V3z M10.8,15H1.2v-4.7c0-1.8,1.4-3.2,3.2-3.2h1v1.5
			c0,0.3,0.3,0.6,0.6,0.6c0.3,0,0.6-0.3,0.6-0.6V7.1h1c1.8,0,3.2,1.4,3.2,3.2L10.8,15z"/>
	</g>
</g>
<g id="Group_187" transform="translate(23.399 23.897)">
	<g id="Group_186">
		<path id="Path_258" class="st0" d="M1,0.2c-0.2-0.2-0.6-0.2-0.8,0c-0.2,0.2-0.2,0.6,0,0.8C0.4,1.2,0.8,1.2,1,1
			c0.1-0.1,0.2-0.3,0.2-0.4C1.2,0.4,1.1,0.3,1,0.2z"/>
	</g>
</g>
<g id="Group_189" transform="translate(5.382 23.897)">
	<g id="Group_188">
		<path id="Path_259" class="st0" d="M1,0.2c-0.2-0.2-0.6-0.2-0.8,0c-0.2,0.2-0.2,0.6,0,0.8S0.8,1.2,1,1c0.1-0.1,0.2-0.3,0.2-0.4
			C1.2,0.4,1.1,0.3,1,0.2z"/>
	</g>
</g>
</svg>
