<svg xmlns="http://www.w3.org/2000/svg" width="148.16" height="45.324" viewBox="0 0 148.16 45.324">
  <g id="Grupo_24" data-name="Grupo 24" opacity="0.596">
    <path id="Trazado_3" data-name="Trazado 3" d="M99.941,257.814a2.033,2.033,0,0,0-.751-.382,2.574,2.574,0,0,0-.872-.143H96.283a.5.5,0,0,1-.364-.143.483.483,0,0,1-.146-.358.538.538,0,0,1,.146-.382.517.517,0,0,1,.388-.143h3.876v-1.478H95.75a2.337,2.337,0,0,0-.9.19,2.2,2.2,0,0,0-.728.5,2.387,2.387,0,0,0-.484.715,2.146,2.146,0,0,0-.169.883,2.1,2.1,0,0,0,.169.906,1.866,1.866,0,0,0,.46.645,2.117,2.117,0,0,0,.728.382,3.716,3.716,0,0,0,.921.118H97.3a.8.8,0,0,1,.242.025.833.833,0,0,1,.218.1.554.554,0,0,1,.169.167.384.384,0,0,1,.049.238.594.594,0,0,1-.049.238,1.077,1.077,0,0,1-.146.168.946.946,0,0,1-.218.1.849.849,0,0,1-.242.023H93.69v1.48h4.651a3.224,3.224,0,0,0,.993-.143,1.9,1.9,0,0,0,.728-.453,2.188,2.188,0,0,0,.46-.716,3.082,3.082,0,0,0,.146-.978,2.019,2.019,0,0,0-.195-.858A1.9,1.9,0,0,0,99.941,257.814Z" transform="translate(-73.265 -216.355)" fill="#aeaeae"/>
    <path id="Trazado_4" data-name="Trazado 4" d="M109.488,254.826a6.465,6.465,0,0,0-1.042.168,3.671,3.671,0,0,0-.823.357,1.873,1.873,0,0,0-.606.621,3.256,3.256,0,0,0-.388.93,5.164,5.164,0,0,0-.122,1.311,6.93,6.93,0,0,0,.122,1.313,3.294,3.294,0,0,0,.388.93,2.137,2.137,0,0,0,.606.62,3.667,3.667,0,0,0,.823.358,4.538,4.538,0,0,0,1.042.167c.388.023.8.048,1.236.048H114v-1.48h-3.271a1.386,1.386,0,0,1-.968-.31,1.512,1.512,0,0,1-.486-.883h4.7V257.5h-4.724a1.357,1.357,0,0,1,1.454-1.193h3.27v-1.48H110.7A6.991,6.991,0,0,0,109.488,254.826Z" transform="translate(-66.943 -216.349)" fill="#aeaeae"/>
    <path id="Trazado_5" data-name="Trazado 5" d="M126.5,257.814a2.033,2.033,0,0,0-.751-.382,2.574,2.574,0,0,0-.872-.143h-2.06a.5.5,0,0,1-.364-.143.483.483,0,0,1-.146-.358.538.538,0,0,1,.146-.382.517.517,0,0,1,.388-.143h3.877v-1.478h-4.458a2.343,2.343,0,0,0-.9.19,2.194,2.194,0,0,0-.726.5,2.365,2.365,0,0,0-.486.715,2.146,2.146,0,0,0-.169.883,2.1,2.1,0,0,0,.169.906,1.866,1.866,0,0,0,.46.645,2.117,2.117,0,0,0,.728.382,3.716,3.716,0,0,0,.921.118h1.55a.8.8,0,0,1,.242.025.833.833,0,0,1,.218.1.554.554,0,0,1,.169.167.384.384,0,0,1,.049.238.594.594,0,0,1-.049.238,1.076,1.076,0,0,1-.146.168.947.947,0,0,1-.218.1.849.849,0,0,1-.242.023h-3.585v1.48H124.9a3.231,3.231,0,0,0,.993-.143,1.9,1.9,0,0,0,.728-.453,2.188,2.188,0,0,0,.46-.716,3.084,3.084,0,0,0,.144-.978,2.018,2.018,0,0,0-.193-.858A1.773,1.773,0,0,0,126.5,257.814Z" transform="translate(-60.406 -216.355)" fill="#aeaeae"/>
    <path id="Trazado_6" data-name="Trazado 6" d="M138.852,258.743a2.933,2.933,0,0,1-.1.5,2.382,2.382,0,0,1-.169.453,1.049,1.049,0,0,1-.291.358,1.393,1.393,0,0,1-.411.238,1.947,1.947,0,0,1-.582.1,1.477,1.477,0,0,1-.581-.1.979.979,0,0,1-.413-.238,1.457,1.457,0,0,1-.291-.358,1.5,1.5,0,0,1-.169-.453,3.717,3.717,0,0,1-.1-.5,4.057,4.057,0,0,1-.024-.548c0-.263.024-.525.048-.788a2.314,2.314,0,0,1,.242-.715,1.224,1.224,0,0,1,.486-.5,1.777,1.777,0,0,1,1.6,0,1.4,1.4,0,0,1,.484.5,1.777,1.777,0,0,1,.218.715,4.39,4.39,0,0,1,.048.788A1.994,1.994,0,0,1,138.852,258.743Zm2.132-2.553a2.981,2.981,0,0,0-.679-.668,3.809,3.809,0,0,0-.872-.453,4.542,4.542,0,0,0-1.017-.262,8.714,8.714,0,0,0-2.229,0,4.554,4.554,0,0,0-1.019.262,3.838,3.838,0,0,0-.872.453,3.041,3.041,0,0,0-.679.668,2.754,2.754,0,0,0-.435.883,4.013,4.013,0,0,0-.146,1.121,4.083,4.083,0,0,0,.146,1.145,2.893,2.893,0,0,0,.435.906,3.041,3.041,0,0,0,.679.668,3.834,3.834,0,0,0,.872.453,6.449,6.449,0,0,0,1.019.262,9.08,9.08,0,0,0,2.276,0,4.609,4.609,0,0,0,1.019-.262,3.219,3.219,0,0,0,.848-.453,3.042,3.042,0,0,0,.679-.668,2.664,2.664,0,0,0,.435-.906,4.582,4.582,0,0,0,0-2.291A3.626,3.626,0,0,0,140.984,256.191Z" transform="translate(-54.076 -216.378)" fill="#aeaeae"/>
    <path id="Trazado_7" data-name="Trazado 7" d="M152.392,257.3a.843.843,0,0,1-.169.238.856.856,0,0,1-.242.167.647.647,0,0,1-.291.072h-2.132V256.3h2.132a1.256,1.256,0,0,1,.291.047.92.92,0,0,1,.242.167.83.83,0,0,1,.169.24.587.587,0,0,1,.049.285A.463.463,0,0,1,152.392,257.3Zm2.132.43a1.611,1.611,0,0,0,.218-.5,1.982,1.982,0,0,0,.073-.548,2.632,2.632,0,0,0-.1-.645,1.718,1.718,0,0,0-.291-.5,1.587,1.587,0,0,0-.437-.358,3.967,3.967,0,0,0-.557-.238,2.457,2.457,0,0,0-.606-.12,5.714,5.714,0,0,0-.63-.048h-5.016v6.8h2.4v-2.433h2.131a.477.477,0,0,1,.291.095,1.024,1.024,0,0,1,.242.215,1.893,1.893,0,0,1,.171.287.64.64,0,0,1,.073.286v1.55h2.374V259.8a1.838,1.838,0,0,0-.073-.5,1.1,1.1,0,0,0-.244-.428,1.618,1.618,0,0,0-.362-.335,1.112,1.112,0,0,0-.46-.19,1.376,1.376,0,0,0,.484-.263A1.625,1.625,0,0,0,154.525,257.727Z" transform="translate(-47.216 -216.363)" fill="#aeaeae"/>
    <path id="Trazado_8" data-name="Trazado 8" d="M163.575,254.826a6.438,6.438,0,0,0-1.042.168,3.673,3.673,0,0,0-.823.357,1.859,1.859,0,0,0-.606.621,3.214,3.214,0,0,0-.388.93,5.1,5.1,0,0,0-.122,1.311,6.93,6.93,0,0,0,.122,1.313,3.251,3.251,0,0,0,.388.93,2.118,2.118,0,0,0,.606.62,3.669,3.669,0,0,0,.823.358,4.525,4.525,0,0,0,1.042.167c.388.023.8.048,1.235.048h3.271v-1.48h-3.271a1.39,1.39,0,0,1-.97-.31,1.519,1.519,0,0,1-.484-.883h4.7V257.5h-4.724a1.357,1.357,0,0,1,1.454-1.193h3.27v-1.48h-3.27A6.99,6.99,0,0,0,163.575,254.826Z" transform="translate(-40.711 -216.349)" fill="#aeaeae"/>
    <path id="Trazado_9" data-name="Trazado 9" d="M180.574,257.814a2.033,2.033,0,0,0-.751-.382,2.574,2.574,0,0,0-.872-.143h-2.06a.5.5,0,0,1-.364-.143.483.483,0,0,1-.146-.358.538.538,0,0,1,.146-.382.517.517,0,0,1,.388-.143h3.877v-1.478h-4.41a2.33,2.33,0,0,0-.9.19,2.474,2.474,0,0,0-.728.5,2.334,2.334,0,0,0-.484.715,2.123,2.123,0,0,0-.169.883,2.082,2.082,0,0,0,.169.906,1.828,1.828,0,0,0,.46.645,2.1,2.1,0,0,0,.726.382,3.734,3.734,0,0,0,.921.118h1.55a.811.811,0,0,1,.244.025.824.824,0,0,1,.217.1.559.559,0,0,1,.171.167.394.394,0,0,1,.048.238.6.6,0,0,1-.048.238,1.159,1.159,0,0,1-.146.168.945.945,0,0,1-.218.1.849.849,0,0,1-.242.023h-3.61v1.48H179a3.231,3.231,0,0,0,.993-.143,1.9,1.9,0,0,0,.728-.453,2.188,2.188,0,0,0,.46-.716,3.082,3.082,0,0,0,.146-.978,2.018,2.018,0,0,0-.195-.858A2.067,2.067,0,0,0,180.574,257.814Z" transform="translate(-34.159 -216.355)" fill="#aeaeae"/>
    <path id="Trazado_10" data-name="Trazado 10" d="M83.76,258.944l.921-2.386.944,2.386Zm-.486-4.127-3.2,6.655h2.689l.411-1.1h3l.437,1.1H89.38l-3.2-6.655Z" transform="translate(-79.761 -216.34)" fill="#aeaeae"/>
    <path id="Trazado_11" data-name="Trazado 11" d="M153.63,242.453a14.256,14.256,0,0,0-4.119-1.765,18.957,18.957,0,0,0-4.822-.62H133.23a3.081,3.081,0,0,1-1.987-.62,1.985,1.985,0,0,1-.751-1.646,2.082,2.082,0,0,1,.8-1.695,3.267,3.267,0,0,1,2.109-.643h21.587v-6.7H130.2a14.707,14.707,0,0,0-4.942.811,13.425,13.425,0,0,0-4.047,2.218,11.081,11.081,0,0,0-2.738,3.268,8.124,8.124,0,0,0-1.017,3.961,8.434,8.434,0,0,0,.944,4.1,7.871,7.871,0,0,0,2.618,2.863,11.753,11.753,0,0,0,4.021,1.67,22.865,22.865,0,0,0,5.137.548h8.65a8.384,8.384,0,0,1,1.332.12,4.039,4.039,0,0,1,1.212.43,2.988,2.988,0,0,1,.9.74,1.824,1.824,0,0,1,.34,1.073,1.737,1.737,0,0,1-.315,1.1,2.76,2.76,0,0,1-.848.716,4.255,4.255,0,0,1-1.212.4,9.042,9.042,0,0,1-1.4.12H118.788v6.727H144.64a20.182,20.182,0,0,0,5.477-.692,11.313,11.313,0,0,0,4.047-2.053,8.618,8.618,0,0,0,2.495-3.291,10.638,10.638,0,0,0,.872-4.414,7.133,7.133,0,0,0-1.065-3.864A8.712,8.712,0,0,0,153.63,242.453Z" transform="translate(-61.633 -228.379)" fill="#aeaeae"/>
    <path id="Trazado_12" data-name="Trazado 12" d="M170.933,237.977a6.5,6.5,0,0,1,2.593-1.836,10.7,10.7,0,0,1,4.094-.668h14.393v-6.679H177.619c-2.447,0-4.725.072-6.832.19a37.05,37.05,0,0,0-5.792.763,18.764,18.764,0,0,0-4.627,1.623,10.387,10.387,0,0,0-3.415,2.766,12.073,12.073,0,0,0-2.109,4.2,24.267,24.267,0,0,0,0,11.784,12.072,12.072,0,0,0,2.109,4.2,10.689,10.689,0,0,0,3.415,2.766A19.485,19.485,0,0,0,165,258.708a39.614,39.614,0,0,0,5.792.763c2.107.118,4.385.19,6.832.19h14.393v-6.7H177.619a9.807,9.807,0,0,1-4.094-.74,6.713,6.713,0,0,1-2.593-1.956,7.594,7.594,0,0,1-1.381-2.839,13.868,13.868,0,0,1-.413-3.363,13.518,13.518,0,0,1,.413-3.339A7.566,7.566,0,0,1,170.933,237.977Z" transform="translate(-43.852 -228.364)" fill="#aeaeae"/>
    <path id="Trazado_13" data-name="Trazado 13" d="M120.666,228.973H109.86V248.82L93,228.973H79.864v30.009H91.107l-.582-19.966L109.4,258.982h11.266Z" transform="translate(-79.864 -228.281)" fill="#aeaeae"/>
    <rect id="Rect치ngulo_6" data-name="Rect치ngulo 6" width="1.648" height="30.701" transform="translate(47.343)" fill="#1f6043"/>
    <rect id="Rect치ngulo_7" data-name="Rect치ngulo 7" width="1.648" height="30.701" transform="translate(102.924)" fill="#216346"/>
  </g>
</svg>
