<?xml version="1.0" encoding="utf-8"?>
<!-- Generator: Adobe Illustrator 24.3.0, SVG Export Plug-In . SVG Version: 6.00 Build 0)  -->
<svg version="1.1" xmlns="http://www.w3.org/2000/svg" xmlns:xlink="http://www.w3.org/1999/xlink" x="0px" y="0px"
	 viewBox="0 0 280.9 114.6" style="enable-background:new 0 0 280.9 114.6;" xml:space="preserve">
<style type="text/css">
	.st0{fill-rule:evenodd;clip-rule:evenodd;fill:#C6C6C6;}
	.st1{fill-rule:evenodd;clip-rule:evenodd;fill:none;stroke:#246147;stroke-width:3.3427;stroke-miterlimit:3.8637;}
	.st2{fill-rule:evenodd;clip-rule:evenodd;fill:none;stroke:#246147;stroke-width:3;stroke-miterlimit:3.8637;}
	.st3{fill-rule:evenodd;clip-rule:evenodd;fill:#FFFFFF;}
</style>
<g id="Background">
</g>
<g id="Guides">
</g>
<g id="Foreground">
	<g>
		<polygon class="st3" points="77.9,59.1 54.7,59.1 20.7,18.8 21.4,59.1 0.3,59.1 0.3,0 25.2,0 57.3,38.1 56.6,0 77.9,0 		"/>
		<path class="st3" d="M185.8,41c0,12.1-10.4,18.1-31.1,18.1h-48.9V47h46.1c8.3,0,12.4-1.8,12.4-5.5c0-2-0.8-3.5-2.4-4.4
			c-1.4-0.8-4.3-1.1-8.8-1.1h-21c-8.4,0-14.8-0.9-19.4-2.8c-6.9-2.7-10.3-7.6-10.3-14.7c0-7.5,3.6-12.7,10.7-15.6
			C117.8,1,124.6,0,133.5,0h48.3v12.2h-45.6c-8.1,0-12.2,2.1-12.2,6.4c0,3.5,3.2,5.2,9.6,5.2h23.6c8.5,0,14.9,0.8,19,2.5
			C182.6,28.9,185.8,33.8,185.8,41z"/>
		<path class="st3" d="M280.8,59.1H249c-6.8,0-12.1-0.4-16-1.1c-7.6-1.5-13.5-4.5-17.9-9c-4.7-4.9-7.1-11-7.1-18.4
			C208,10.2,221.8,0,249.5,0h31.3v11.8h-30.9c-6.9,0-11.9,1.5-14.8,4.5c-2.9,2.9-4.4,7.8-4.4,14.8c0,6.3,1.7,10.7,5.1,13.1
			c2.8,2,7.5,3,14.1,3h30.9V59.1z"/>
		<g>
			<path class="st3" d="M18.9,86.5h-4.6l-1.5-2.6H6.1l-1.5,2.6H0.2L7.5,75h4.1L18.9,86.5z M11.5,81.5L9.4,78l-2,3.5H11.5z"/>
			<path class="st3" d="M55.4,83c0,2.3-2,3.5-6.1,3.5h-9.5v-2.4h9c1.6,0,2.4-0.4,2.4-1.1c0-0.4-0.2-0.7-0.5-0.9
				C50.5,82.1,49.9,82,49,82H45c-1.6,0-2.9-0.2-3.8-0.5c-1.3-0.5-2-1.5-2-2.9c0-1.5,0.7-2.5,2.1-3c0.9-0.4,2.3-0.6,4-0.6h9.4v2.4
				h-8.9c-1.6,0-2.4,0.4-2.4,1.2c0,0.7,0.6,1,1.9,1h4.6c1.7,0,2.9,0.2,3.7,0.5C54.8,80.7,55.4,81.6,55.4,83z"/>
			<path class="st3" d="M91.3,86.5h-6.2c-1.3,0-2.4-0.1-3.1-0.2c-1.5-0.3-2.6-0.9-3.5-1.8c-0.9-0.9-1.4-2.1-1.4-3.6c0-4,2.7-6,8.1-6
				h6.1v2.3h-6c-2.2,0-3.4,0.7-3.6,2.2l9.6,0v2.3h-9.7c0,0.9,0.4,1.6,1.2,1.9c0.6,0.3,1.4,0.4,2.4,0.4h6V86.5z"/>
			<path class="st3" d="M129.9,83c0,2.3-2,3.5-6.1,3.5h-9.5v-2.4h9c1.6,0,2.4-0.4,2.4-1.1c0-0.4-0.2-0.7-0.5-0.9
				c-0.3-0.1-0.8-0.2-1.7-0.2h-4.1c-1.6,0-2.9-0.2-3.8-0.5c-1.3-0.5-2-1.5-2-2.9c0-1.5,0.7-2.5,2.1-3c0.9-0.4,2.3-0.6,4-0.6h9.4v2.4
				h-8.9c-1.6,0-2.4,0.4-2.4,1.2c0,0.7,0.6,1,1.9,1h4.6c1.7,0,2.9,0.2,3.7,0.5C129.2,80.7,129.9,81.6,129.9,83z"/>
			<path class="st3" d="M168.7,80.8c0,4-2.8,6-8.5,6c-2.5,0-4.5-0.4-5.9-1.1c-1.8-1-2.7-2.7-2.7-5c0-2.3,0.9-3.9,2.8-4.8
				c1.4-0.7,3.3-1,5.8-1c2.5,0,4.5,0.4,5.8,1.1C167.7,76.9,168.7,78.5,168.7,80.8z M164.3,80.8c0-2.5-1.4-3.7-4.2-3.7
				c-2.8,0-4.2,1.2-4.2,3.6c0,1.3,0.4,2.3,1.1,2.9c0.7,0.6,1.7,0.8,3.1,0.8C162.9,84.5,164.3,83.2,164.3,80.8z"/>
			<path class="st3" d="M207.1,86.5h-4.6l-3.6-4.4h-3.6v4.4h-4.1V75h8.8c1.7,0,3,0.2,4,0.5c1.4,0.6,2.1,1.6,2.1,3
				c0,0.9-0.3,1.6-0.9,2.2c-0.5,0.5-1.3,0.8-2.2,1L207.1,86.5z M202,78.6c0-0.6-0.4-0.9-1.1-1.1c-0.3-0.1-0.9-0.1-1.7-0.1h-4v2.4h4
				c0.8,0,1.4,0,1.7-0.1C201.7,79.5,202,79.2,202,78.6z"/>
			<path class="st3" d="M242.3,86.5h-6.2c-1.3,0-2.4-0.1-3.1-0.2c-1.5-0.3-2.6-0.9-3.5-1.8c-0.9-0.9-1.4-2.1-1.4-3.6
				c0-4,2.7-6,8.1-6h6.1v2.3h-6c-2.2,0-3.4,0.7-3.6,2.2l9.6,0v2.3h-9.7c0,0.9,0.4,1.6,1.2,1.9c0.6,0.3,1.4,0.4,2.4,0.4h6V86.5z"/>
			<path class="st3" d="M280.9,83c0,2.3-2,3.5-6.1,3.5h-9.5v-2.4h9c1.6,0,2.4-0.4,2.4-1.1c0-0.4-0.2-0.7-0.5-0.9
				c-0.3-0.1-0.8-0.2-1.7-0.2h-4.1c-1.6,0-2.9-0.2-3.8-0.5c-1.3-0.5-2-1.5-2-2.9c0-1.5,0.7-2.5,2.1-3c0.9-0.4,2.3-0.6,4-0.6h9.4v2.4
				h-8.9c-1.6,0-2.4,0.4-2.4,1.2c0,0.7,0.6,1,1.9,1h4.6c1.7,0,2.9,0.2,3.7,0.5C280.3,80.7,280.9,81.6,280.9,83z"/>
		</g>
		<line class="st1" x1="90.1" y1="0" x2="90.1" y2="59.1"/>
		<line class="st1" x1="197.1" y1="0" x2="197.1" y2="59.1"/>
		<g>
			<path class="st3" d="M9.2,111.8h-6c-0.8,0-1.4-0.2-1.9-0.6c-0.5-0.4-0.7-0.9-0.7-1.7c0-1,0.3-1.6,0.9-2c0.5-0.3,1.3-0.5,2.4-0.5
				h2.9v-0.2c0-0.5-0.2-0.9-0.6-1.1c-0.3-0.1-0.8-0.2-1.4-0.2H1.1V104h4.6c2.3,0,3.5,1,3.5,2.9V111.8z M6.9,110.2v-1.6H4.3
				c-0.5,0-0.8,0-1,0.1c-0.3,0.1-0.4,0.4-0.4,0.7c0,0.3,0.1,0.5,0.4,0.6c0.2,0.1,0.4,0.1,0.8,0.1H6.9z"/>
			<path class="st3" d="M29.6,107.5c0,2.2-0.8,3.5-2.4,4c-0.5,0.2-1.3,0.2-2.4,0.2h-3.2V110h2.8c1.1,0,1.9-0.3,2.2-0.8
				c0.3-0.4,0.4-1.1,0.4-2.2v-5.8h2.5V107.5z"/>
			<path class="st3" d="M40.4,111.8h-4.2c-1.2,0-2-0.2-2.6-0.6c-0.6-0.4-0.9-1.2-0.9-2.2V104h2.2v4.7c0,0.5,0.1,0.8,0.3,1
				c0.2,0.2,0.6,0.3,1.2,0.3h1.8v-6h2.2V111.8z"/>
			<rect x="43.5" y="101.2" class="st3" width="2.3" height="10.6"/>
			<path class="st3" d="M51.1,103.1h-2.3v-1.9h2.3V103.1z M51.1,111.8h-2.3V104h2.3V111.8z"/>
			<path class="st3" d="M61.8,111.8h-4.2c-1.2,0-2-0.2-2.6-0.6c-0.6-0.4-0.9-1.2-0.9-2.2V104h2.2v4.7c0,0.5,0.1,0.8,0.3,1
				c0.2,0.2,0.6,0.3,1.2,0.3h1.8v-6h2.2V111.8z"/>
			<path class="st3" d="M72.9,109.3c0,0.7-0.2,1.2-0.6,1.7c-0.4,0.5-1,0.7-1.7,0.7h-5.8v-1.6h4.7c0.8,0,1.2-0.3,1.2-0.8
				c0-0.5-0.4-0.8-1.2-0.8h-1.9c-1,0-1.7-0.1-2.1-0.4c-0.5-0.3-0.8-0.9-0.8-1.8c0-0.9,0.3-1.5,0.8-1.9c0.5-0.3,1.2-0.5,2.2-0.5h4.8
				v1.6h-3.9c-0.5,0-0.8,0-1,0.1c-0.4,0.1-0.5,0.3-0.5,0.6c0,0.3,0.2,0.5,0.5,0.6c0.2,0.1,0.6,0.1,1.2,0.1c0.1,0,0.3,0,0.5,0
				c0.2,0,0.4,0,0.5,0c1,0,1.7,0.1,2.2,0.4C72.5,107.8,72.9,108.4,72.9,109.3z"/>
			<path class="st3" d="M96.4,108.9c0,1.9-1.3,2.9-3.8,2.9h-6.3v-10.6h5.9c1.3,0,2.2,0.2,2.9,0.5c0.9,0.4,1.3,1.2,1.3,2.3
				c0,1.1-0.6,2-1.7,2.5c0.6,0.3,1.1,0.6,1.3,0.9C96.3,107.8,96.4,108.3,96.4,108.9z M93.8,104.3c0-0.8-0.5-1.2-1.6-1.2h-3.5v2.4
				h3.5C93.2,105.5,93.8,105.1,93.8,104.3z M93.8,108.7c0-0.8-0.5-1.2-1.6-1.2h-3.6v2.5h3.6c0.5,0,0.9-0.1,1.2-0.3
				C93.7,109.4,93.8,109.1,93.8,108.7z"/>
			<path class="st3" d="M107.4,111.8h-6c-0.8,0-1.4-0.2-1.9-0.6c-0.5-0.4-0.7-0.9-0.7-1.7c0-1,0.3-1.6,0.9-2
				c0.5-0.3,1.3-0.5,2.4-0.5h2.9v-0.2c0-0.5-0.2-0.9-0.6-1.1c-0.3-0.1-0.8-0.2-1.4-0.2h-3.7V104h4.6c2.3,0,3.5,1,3.5,2.9V111.8z
				 M105.1,110.2v-1.6h-2.6c-0.5,0-0.8,0-1,0.1c-0.3,0.1-0.4,0.4-0.4,0.7c0,0.3,0.1,0.5,0.4,0.6c0.2,0.1,0.4,0.1,0.8,0.1H105.1z"/>
			<path class="st3" d="M117.5,111.8h-3.3c-2.8,0-4.2-1.3-4.2-3.9c0-1.2,0.4-2.2,1.1-2.9c0.7-0.7,1.8-1,3.2-1h3.3v1.6h-2.9
				c-0.7,0-1.2,0.1-1.5,0.2c-0.4,0.2-0.6,0.6-0.6,1.2h5v1.6h-5c0,0.6,0.2,1,0.6,1.2c0.3,0.2,0.8,0.2,1.5,0.2h3V111.8z"/>
			<path class="st3" d="M126.1,107.3H124v-1c0-0.3-0.1-0.5-0.2-0.6c-0.1-0.1-0.4-0.1-0.8-0.1h-0.8v6.3H120V104h3.7
				c0.8,0,1.4,0.1,1.8,0.4c0.4,0.3,0.6,0.8,0.6,1.5V107.3z"/>
			<path class="st3" d="M149.2,111.8H144c-1,0-1.7-0.1-2.2-0.2c-1.1-0.3-1.9-0.9-2.5-1.9c-0.5-0.8-0.7-1.8-0.7-3
				c0-1.8,0.4-3.1,1.2-4c0.9-1,2.3-1.5,4.2-1.5h5.2v1.8H144c-1.1,0-1.8,0.4-2.2,1.1c-0.3,0.6-0.5,1.4-0.5,2.4c0,2.2,0.9,3.3,2.7,3.3
				h2.7v-2.5h-3.2v-1.9h5.7V111.8z"/>
			<path class="st3" d="M158.2,107.3h-2.1v-1c0-0.3-0.1-0.5-0.2-0.6c-0.1-0.1-0.4-0.1-0.8-0.1h-0.8v6.3h-2.2V104h3.7
				c0.8,0,1.4,0.1,1.8,0.4c0.4,0.3,0.6,0.8,0.6,1.5V107.3z"/>
			<path class="st3" d="M169.1,107.9c0,1.2-0.4,2.2-1.2,2.9c-0.8,0.7-1.9,1.1-3.2,1.1c-1.4,0-2.4-0.4-3.3-1.1
				c-0.8-0.7-1.2-1.7-1.2-2.9c0-1.2,0.4-2.2,1.2-2.9c0.8-0.7,1.9-1.1,3.3-1.1c1.4,0,2.4,0.4,3.3,1.1
				C168.7,105.7,169.1,106.6,169.1,107.9z M166.8,107.9c0-0.7-0.2-1.2-0.5-1.6c-0.4-0.5-0.9-0.7-1.6-0.7c-0.7,0-1.3,0.2-1.6,0.7
				c-0.3,0.4-0.5,1-0.5,1.6c0,0.7,0.2,1.2,0.5,1.6c0.4,0.5,0.9,0.7,1.6,0.7c0.7,0,1.3-0.2,1.6-0.7
				C166.6,109.1,166.8,108.6,166.8,107.9z"/>
			<path class="st3" d="M179.2,111.8h-4.2c-1.2,0-2-0.2-2.6-0.6c-0.6-0.4-0.9-1.2-0.9-2.2V104h2.2v4.7c0,0.5,0.1,0.8,0.3,1
				c0.2,0.2,0.6,0.3,1.2,0.3h1.8v-6h2.2V111.8z"/>
			<path class="st3" d="M190.8,108c0,1-0.3,1.9-0.9,2.6c-0.7,0.8-1.9,1.2-3.6,1.2c-0.2,0-0.5,0-0.8,0c-0.4,0-0.6,0-0.8,0v2.8h-2.2
				V104h4.3c1.3,0,2.3,0.4,3.1,1.1C190.4,105.8,190.8,106.8,190.8,108z M188.4,107.8c0-0.8-0.2-1.3-0.5-1.7
				c-0.3-0.3-0.9-0.5-1.8-0.5h-1.5v4.4h1.4c0.9,0,1.5-0.2,1.9-0.5C188.3,109.2,188.4,108.6,188.4,107.8z"/>
			<path class="st3" d="M210.7,111.8h-3c-0.8,0-1.4-0.1-1.9-0.2c-0.8-0.2-1.4-0.7-1.9-1.4c-0.4-0.7-0.6-1.4-0.6-2.2
				c0-0.6,0.1-1.1,0.3-1.6c0.4-0.8,0.9-1.4,1.6-1.8c0.6-0.3,1.5-0.5,2.5-0.5h3v1.7h-2.4c-1,0-1.7,0.2-2.1,0.4
				c-0.5,0.3-0.7,0.9-0.7,1.8c0,1,0.4,1.7,1.3,2.1c0.2,0.1,0.7,0.1,1.5,0.1h2.4V111.8z"/>
			<path class="st3" d="M221.6,107.9c0,1.2-0.4,2.2-1.2,2.9c-0.8,0.7-1.9,1.1-3.2,1.1c-1.4,0-2.4-0.4-3.3-1.1
				c-0.8-0.7-1.2-1.7-1.2-2.9c0-1.2,0.4-2.2,1.2-2.9c0.8-0.7,1.9-1.1,3.3-1.1c1.4,0,2.4,0.4,3.3,1.1
				C221.2,105.7,221.6,106.6,221.6,107.9z M219.3,107.9c0-0.7-0.2-1.2-0.5-1.6c-0.4-0.5-0.9-0.7-1.6-0.7c-0.7,0-1.3,0.2-1.6,0.7
				c-0.3,0.4-0.5,1-0.5,1.6c0,0.7,0.2,1.2,0.5,1.6c0.4,0.5,0.9,0.7,1.6,0.7c0.7,0,1.3-0.2,1.6-0.7
				C219.1,109.1,219.3,108.6,219.3,107.9z"/>
			<path class="st3" d="M236.2,111.8h-2.2v-4.7c0-0.5-0.1-0.9-0.3-1.1c-0.2-0.2-0.6-0.3-1.2-0.3h-1.2v6H229v-6h-2.6v6h-2.2V104h8.5
				c1.2,0,2,0.2,2.6,0.6c0.6,0.4,0.9,1.2,0.9,2.2V111.8z"/>
			<path class="st3" d="M247.7,108c0,1-0.3,1.9-0.9,2.6c-0.7,0.8-1.9,1.2-3.6,1.2c-0.2,0-0.5,0-0.8,0c-0.4,0-0.6,0-0.8,0v2.8h-2.2
				V104h4.3c1.3,0,2.3,0.4,3.1,1.1C247.3,105.8,247.7,106.8,247.7,108z M245.4,107.8c0-0.8-0.2-1.3-0.5-1.7
				c-0.3-0.3-0.9-0.5-1.8-0.5h-1.5v4.4h1.4c0.9,0,1.5-0.2,1.9-0.5C245.2,109.2,245.4,108.6,245.4,107.8z"/>
			<path class="st3" d="M258.4,111.8h-6c-0.8,0-1.4-0.2-1.9-0.6c-0.5-0.4-0.7-0.9-0.7-1.7c0-1,0.3-1.6,0.9-2
				c0.5-0.3,1.3-0.5,2.4-0.5h2.9v-0.2c0-0.5-0.2-0.9-0.6-1.1c-0.3-0.1-0.8-0.2-1.4-0.2h-3.7V104h4.6c2.3,0,3.5,1,3.5,2.9V111.8z
				 M256.1,110.2v-1.6h-2.6c-0.5,0-0.8,0-1,0.1c-0.3,0.1-0.4,0.4-0.4,0.7c0,0.3,0.1,0.5,0.4,0.6c0.2,0.1,0.4,0.1,0.8,0.1H256.1z"/>
			<path class="st3" d="M269.1,111.8h-2.2v-4.7c0-0.5-0.1-0.9-0.3-1.1c-0.2-0.2-0.6-0.3-1.2-0.3h-1.8v6h-2.2V104h4.2
				c1.2,0,2.1,0.2,2.6,0.6c0.6,0.4,0.9,1.2,0.9,2.2V111.8z"/>
			<path class="st3" d="M279.8,111.5c0,2-1.1,3-3.2,3h-4.4V113h4c0.9,0,1.3-0.4,1.3-1.2c-1.6,0-2.5,0-2.7,0c-0.9-0.1-1.6-0.3-2-0.7
				c-0.5-0.5-0.8-1.2-0.8-2.3V104h2.2v4.6c0,0.6,0.1,0.9,0.3,1.1c0.2,0.2,0.6,0.3,1.2,0.3h1.8v-6h2.2V111.5z"/>
		</g>
		<line class="st2" x1="0" y1="94.7" x2="280.8" y2="94.7"/>
	</g>
</g>
</svg>
