<svg xmlns="http://www.w3.org/2000/svg" xmlns:xlink="http://www.w3.org/1999/xlink" width="40" height="40" viewBox="0 0 40 40">
  <defs>
    <clipPath id="clip-Patrimonio">
      <rect width="40" height="40"/>
    </clipPath>
  </defs>
  <g id="Patrimonio" clip-path="url(#clip-Patrimonio)">
    <g id="Grupo_360" data-name="Grupo 360" transform="translate(-2240.945 -1548.48)">
      <g id="Grupo_353" data-name="Grupo 353" transform="translate(2244.341 1572.561)">
        <g id="Grupo_350" data-name="Grupo 350">
          <path id="Trazado_396" data-name="Trazado 396" d="M2250.19,1592.01H2244.9a.562.562,0,0,1-.562-.562v-14.8a.561.561,0,0,1,.562-.562h5.288a.561.561,0,0,1,.562.562v14.8A.562.562,0,0,1,2250.19,1592.01Zm-4.726-1.123h4.164v-13.672h-4.164Z" transform="translate(-2244.341 -1576.091)" fill="#8dbb2b"/>
        </g>
        <g id="Grupo_351" data-name="Grupo 351" transform="translate(5.288 1.289)">
          <path id="Trazado_397" data-name="Trazado 397" d="M2259.588,1583.725a.562.562,0,0,1-.167-1.1l3.789-1.176a.556.556,0,0,1,.245-.02l7.087,1a.834.834,0,0,0,.934-.645l.06-.267a.839.839,0,0,0-.625-1l-7.462-1.763a2.337,2.337,0,0,0-.963-.024l-11.42,2.11a.561.561,0,1,1-.2-1.1l11.42-2.111a3.456,3.456,0,0,1,1.425.035l7.462,1.763a1.965,1.965,0,0,1,1.462,2.343l-.06.267a1.972,1.972,0,0,1-2.186,1.507l-6.962-.978-3.669,1.138A.55.55,0,0,1,2259.588,1583.725Z" transform="translate(-2250.404 -1577.569)" fill="#8dbb2b"/>
        </g>
        <g id="Grupo_352" data-name="Grupo 352" transform="translate(5.287 6.143)">
          <path id="Trazado_398" data-name="Trazado 398" d="M2259.1,1590.011a70.085,70.085,0,0,1-8.2-.482.561.561,0,1,1,.131-1.115,68.4,68.4,0,0,0,26.061-1.94l1.438-.391a.838.838,0,0,0,.177-1.547.85.85,0,0,0-.4-.1l-7.859-.179a.562.562,0,0,1,.025-1.123l7.846.179h0a1.961,1.961,0,0,1,.5,3.854l-1.438.391A69.529,69.529,0,0,1,2259.1,1590.011Z" transform="translate(-2250.403 -1583.134)" fill="#8dbb2b"/>
        </g>
      </g>
      <g id="Grupo_359" data-name="Grupo 359" transform="translate(2252.636 1548.48)">
        <g id="Grupo_357" data-name="Grupo 357" transform="translate(6.238 2.808)">
          <g id="Grupo_354" data-name="Grupo 354" transform="translate(0 1.658)">
            <path id="Trazado_399" data-name="Trazado 399" d="M2263.991,1562.69a3.509,3.509,0,0,1-2.87-1.456.562.562,0,0,1,.891-.684,2.572,2.572,0,0,0,3.251.722l.051-.023a1.162,1.162,0,0,0,.635-1.223,1.488,1.488,0,0,0-1.017-1.241s-1.057-.316-2.1-.624a2.206,2.206,0,0,1-1.775-2.255,2.11,2.11,0,0,1,.714-1.615,3.367,3.367,0,0,1,2.354-.687,3.022,3.022,0,0,1,2.946,2.042.562.562,0,0,1-1.079.314,1.87,1.87,0,0,0-1.88-1.233,2.39,2.39,0,0,0-1.6.408,1.01,1.01,0,0,0-.332.783c0,.455.109.911.971,1.165l2.1.625a2.607,2.607,0,0,1,1.816,2.214,2.3,2.3,0,0,1-1.3,2.355A4,4,0,0,1,2263.991,1562.69Z" transform="translate(-2261.005 -1553.602)" fill="#8dbb2b"/>
          </g>
          <g id="Grupo_355" data-name="Grupo 355" transform="translate(2.554)">
            <path id="Trazado_400" data-name="Trazado 400" d="M2264.495,1554.483a.562.562,0,0,1-.562-.562v-1.66a.562.562,0,1,1,1.123,0v1.66A.562.562,0,0,1,2264.495,1554.483Z" transform="translate(-2263.933 -1551.7)" fill="#8dbb2b"/>
          </g>
          <g id="Grupo_356" data-name="Grupo 356" transform="translate(2.554 9.728)">
            <path id="Trazado_401" data-name="Trazado 401" d="M2264.495,1565.637a.562.562,0,0,1-.562-.562v-1.66a.562.562,0,1,1,1.123,0v1.66A.562.562,0,0,1,2264.495,1565.637Z" transform="translate(-2263.933 -1562.854)" fill="#8dbb2b"/>
          </g>
        </g>
        <g id="Grupo_358" data-name="Grupo 358">
          <path id="Trazado_402" data-name="Trazado 402" d="M2263.135,1567.045a9.283,9.283,0,1,1,9.282-9.283A9.294,9.294,0,0,1,2263.135,1567.045Zm0-17.442a8.159,8.159,0,1,0,8.159,8.159A8.169,8.169,0,0,0,2263.135,1549.6Z" transform="translate(-2253.852 -1548.48)" fill="#8dbb2b"/>
        </g>
      </g>
    </g>
  </g>
</svg>
