<svg xmlns="http://www.w3.org/2000/svg" width="41.562" height="41.5" viewBox="0 0 41.562 41.5">
  <g id="Group_289" data-name="Group 289" transform="translate(0.75 10.677)">
    <g id="Group_274" data-name="Group 274" transform="translate(0 -9.927)">
      <path id="Path_317" data-name="Path 317" d="M1238.938,700.5a7.685,7.685,0,1,0-7.685-7.685A7.694,7.694,0,0,0,1238.938,700.5Zm0-14.562a6.877,6.877,0,1,1-6.877,6.877A6.885,6.885,0,0,1,1238.938,685.935Z" transform="translate(-1226.3 -674.905)" fill="#8dbb2b" stroke="#8dbb2b" stroke-width="1.5"/>
      <path id="Path_318" data-name="Path 318" d="M1215.128,794.283h-4.048c-5.852,0-10.614,3.533-10.614,7.877v2.271a.4.4,0,1,0,.807,0V802.16c0-3.9,4.4-7.069,9.806-7.069h4.048c5.407,0,9.807,3.171,9.807,7.069v2.271a.4.4,0,1,0,.807,0V802.16C1225.742,797.816,1220.98,794.283,1215.128,794.283Z" transform="translate(-1200.466 -764.834)" fill="#8dbb2b" stroke="#8dbb2b" stroke-width="1.5"/>
      <path id="Path_319" data-name="Path 319" d="M1354.23,702.679l-4.344-5.612v-7.106a1.236,1.236,0,0,0-1.274-1.19h-1.307a1.236,1.236,0,0,0-1.276,1.19v2.124l-4.884-6.31a.556.556,0,0,0-.842,0l-4.148,5.36a.434.434,0,0,0,.06.593.392.392,0,0,0,.568-.062l3.942-5.092,9.061,11.705v15.545h-6.029v-6.531a3.1,3.1,0,0,0-3.026-3.162,2.967,2.967,0,0,0-2.346,1.165.436.436,0,0,0,.057.594.392.392,0,0,0,.568-.061,2.176,2.176,0,0,1,1.721-.855,2.272,2.272,0,0,1,2.218,2.318v6.531H1341.6a.422.422,0,0,0,0,.844h8.372a.613.613,0,0,0,.619-.6V699.322l3.009,3.888a.392.392,0,0,0,.568.063A.435.435,0,0,0,1354.23,702.679Zm-7.393-12.717c0-.187.215-.346.468-.346h1.307c.253,0,.467.159.467.346v6.063l-2.241-2.9Z" transform="translate(-1314.32 -685.583)" fill="#8dbb2b" stroke="#8dbb2b" stroke-width="1.5"/>
      <path id="Path_320" data-name="Path 320" d="M1356.085,732.83a.5.5,0,0,0,.5-.5v-2.679a1.884,1.884,0,0,0-1.881-1.881h-.259a1.884,1.884,0,0,0-1.882,1.881v2.679a.5.5,0,0,0,.5.5Zm-2.715-3.179a1.075,1.075,0,0,1,1.074-1.074h.259a1.075,1.075,0,0,1,1.074,1.074v2.372h-2.408Z" transform="translate(-1328.471 -720.463)" fill="#8dbb2b" stroke="#8dbb2b" stroke-width="1.5"/>
    </g>
  </g>
</svg>
