<?xml version="1.0" encoding="utf-8"?>
<!-- Generator: Adobe Illustrator 23.1.0, SVG Export Plug-In . SVG Version: 6.00 Build 0)  -->
<svg version="1.1" id="Capa_1" xmlns="http://www.w3.org/2000/svg" xmlns:xlink="http://www.w3.org/1999/xlink" x="0px" y="0px"
	 viewBox="0 0 20.8 20.8" style="enable-background:new 0 0 20.8 20.8;" xml:space="preserve">
<style type="text/css">
	.st0{fill:#8DBB2B;}
</style>
<g id="Group_192" transform="translate(-94.052 -94.032)">
	<g id="Group_191" transform="translate(94.052 94.032)">
		<path id="Path_260" class="st0" d="M10.4,0C4.7,0,0,4.7,0,10.4c0,5.7,4.7,10.4,10.4,10.4c5.7,0,10.4-4.7,10.4-10.4l0,0
			C20.8,4.7,16.1,0,10.4,0z M5.5,2.7C5.2,3.3,4.9,3.9,4.8,4.6C4.4,4.5,4,4.4,3.7,4.2C4.3,3.6,4.9,3.1,5.5,2.7z M2.9,5.2
			C3.4,5.5,4,5.8,4.7,5.9v3.9H1.3C1.4,8.1,2,6.6,2.9,5.2z M2.9,15.5C2,14.2,1.4,12.6,1.3,11h3.4v3.7C4,14.9,3.4,15.1,2.9,15.5z
			 M3.7,16.5C4,16.3,4.4,16.1,4.7,16c0.1,0.7,0.4,1.5,0.8,2.1C4.8,17.7,4.2,17.1,3.7,16.5L3.7,16.5z M9.8,19.4
			c-1.9-0.3-3.4-1.7-3.7-3.6h3.7L9.8,19.4L9.8,19.4z M9.8,14.5H5.9V11h3.8L9.8,14.5L9.8,14.5z M9.8,9.7H5.9V6h3.8L9.8,9.7z M9.8,4.7
			H6.1C6.5,2.9,8,1.6,9.8,1.3V4.7z M17.9,5.2c0.9,1.3,1.5,2.9,1.6,4.5h-3.4V5.9C16.7,5.8,17.3,5.5,17.9,5.2L17.9,5.2z M17.1,4.2
			c-0.3,0.2-0.7,0.3-1.1,0.4c-0.1-0.7-0.4-1.3-0.8-1.9C15.9,3.1,16.5,3.6,17.1,4.2L17.1,4.2z M11,1.3c1.8,0.3,3.3,1.6,3.7,3.4H11
			V1.3z M11,19.4v-3.6h3.7C14.4,17.7,12.9,19.2,11,19.4L11,19.4z M14.8,14.5H11V11h3.8V14.5z M14.8,9.8H11V6h3.8V9.8z M15.2,18.1
			c0.4-0.6,0.7-1.3,0.8-2.1c0.4,0.1,0.7,0.3,1.1,0.5C16.6,17.1,15.9,17.7,15.2,18.1L15.2,18.1z M17.9,15.5c-0.5-0.4-1.2-0.7-1.8-0.8
			V11h3.4C19.4,12.6,18.8,14.2,17.9,15.5L17.9,15.5z"/>
	</g>
</g>
</svg>
