<svg xmlns="http://www.w3.org/2000/svg" width="38.706" height="39.279" viewBox="0 0 38.706 39.279">
  <g id="Group_309" data-name="Group 309" transform="translate(-127.958 -207.958)">
    <path id="Path_350" data-name="Path 350" d="M149.147,236.937,143.41,231.2a1.68,1.68,0,0,1,.046-2.342l1.1-1.1" transform="translate(-2.696 -3.601)" fill="none" stroke="#8dbb2b" stroke-linecap="round" stroke-miterlimit="10" stroke-width="2"/>
    <path id="Path_351" data-name="Path 351" d="M153.866,231.567l-7.459-7.458a1.594,1.594,0,0,0-2.271-.024l-.012.011a1.637,1.637,0,0,0-.011,2.307l7.458,7.459" transform="translate(-2.825 -2.821)" fill="none" stroke="#8dbb2b" stroke-linecap="round" stroke-miterlimit="10" stroke-width="2"/>
    <path id="Path_352" data-name="Path 352" d="M156.6,247.757l-1.723-1.722c-1.011-1.011-3.291-1-4.59-2.3l-6.883-6.883a1.68,1.68,0,0,1,.046-2.342l1.1-1.1" transform="translate(-2.696 -4.669)" fill="none" stroke="#8dbb2b" stroke-linecap="round" stroke-miterlimit="10" stroke-width="2"/>
    <path id="Path_353" data-name="Path 353" d="M157.51,229.71,151.2,223.4a1.568,1.568,0,0,0-2.248-.047l-1.194,1.194" transform="translate(-3.602 -2.685)" fill="none" stroke="#8dbb2b" stroke-linecap="round" stroke-miterlimit="10" stroke-width="2"/>
    <path id="Path_354" data-name="Path 354" d="M167.717,237.691l-1.723-1.723a5.828,5.828,0,0,1-1.521-3.344,6.359,6.359,0,0,0-1.92-3.54l-2.867-2.867a1.485,1.485,0,0,0-2.295,0l-1.147,1.147" transform="translate(-5.202 -3.208)" fill="none" stroke="#8dbb2b" stroke-linecap="round" stroke-miterlimit="10" stroke-width="2"/>
    <path id="Path_355" data-name="Path 355" d="M161.94,252.4l-2.869-2.869,9.753-9.753,2.869,2.869" transform="translate(-5.736 -5.869)" fill="none" stroke="#8dbb2b" stroke-linecap="round" stroke-miterlimit="10" stroke-width="2"/>
    <path id="Path_356" data-name="Path 356" d="M132.908,224.222l1.722,1.723c1.011,1.011,1,3.291,2.3,4.59l2.293,2.293" transform="translate(-0.8 -2.935)" fill="none" stroke="#8dbb2b" stroke-linecap="round" stroke-miterlimit="10" stroke-width="2"/>
    <path id="Path_357" data-name="Path 357" d="M143.515,213.615l1.722,1.723a5.825,5.825,0,0,0,3.344,1.522,6.359,6.359,0,0,1,3.541,1.92l2.867,2.867" transform="translate(-2.801 -0.934)" fill="none" stroke="#8dbb2b" stroke-linecap="round" stroke-miterlimit="10" stroke-width="2"/>
    <path id="Path_358" data-name="Path 358" d="M128.665,219.126l2.869,2.869,9.753-9.753-2.869-2.869" transform="translate(0 -0.133)" fill="none" stroke="#8dbb2b" stroke-linecap="round" stroke-miterlimit="10" stroke-width="2"/>
    <path id="Path_359" data-name="Path 359" d="M143.515,249.658l1.721-1.721c.7-.7,2.012-.91,3.185-1.4" transform="translate(-2.801 -7.143)" fill="none" stroke="#8dbb2b" stroke-linecap="round" stroke-miterlimit="10" stroke-width="2"/>
    <path id="Path_360" data-name="Path 360" d="M132.908,238.654l1.721-1.721a5.589,5.589,0,0,0,1.478-3.112" transform="translate(-0.8 -4.745)" fill="none" stroke="#8dbb2b" stroke-linecap="round" stroke-miterlimit="10" stroke-width="2"/>
    <path id="Path_361" data-name="Path 361" d="M138.419,251.693l2.869-2.869-9.753-9.753-2.869,2.869" transform="translate(0 -5.736)" fill="none" stroke="#8dbb2b" stroke-linecap="round" stroke-miterlimit="10" stroke-width="2"/>
    <path id="Path_362" data-name="Path 362" d="M169.658,223.515l-1.722,1.721c-.7.7-.909,2.013-1.4,3.185" transform="translate(-7.143 -2.801)" fill="none" stroke="#8dbb2b" stroke-linecap="round" stroke-miterlimit="10" stroke-width="2"/>
    <path id="Path_363" data-name="Path 363" d="M158.653,212.908l-1.721,1.721a5.593,5.593,0,0,1-3.117,1.479" transform="translate(-4.744 -0.8)" fill="none" stroke="#8dbb2b" stroke-linecap="round" stroke-miterlimit="10" stroke-width="2"/>
    <path id="Path_364" data-name="Path 364" d="M171.693,218.419l-2.869,2.868-9.753-9.753,2.869-2.869" transform="translate(-5.736)" fill="none" stroke="#8dbb2b" stroke-linecap="round" stroke-miterlimit="10" stroke-width="2"/>
  </g>
</svg>
