<?xml version="1.0" encoding="utf-8"?>
<!-- Generator: Adobe Illustrator 23.1.0, SVG Export Plug-In . SVG Version: 6.00 Build 0)  -->
<svg version="1.1" id="Capa_1" xmlns="http://www.w3.org/2000/svg" xmlns:xlink="http://www.w3.org/1999/xlink" x="0px" y="0px"
	 viewBox="0 0 29.1 29.1" style="enable-background:new 0 0 29.1 29.1;" xml:space="preserve">
<style type="text/css">
	.st0{fill:#8DBB2B;}
</style>
<g id="Group_177" transform="translate(0 -0.022)">
	<g id="Group_170" transform="translate(0 11.207)">
		<g id="Group_169">
			<path id="Path_250" class="st0" d="M28.5,11.1c0.3,0,0.6-0.3,0.6-0.6v-1c0-1.5-0.8-2.8-2.1-3.5C27.6,5.5,28,4.6,28,3.8V3
				c0-1.7-1.3-3.1-3-3.1c-1.7,0-3.1,1.3-3.1,3c0,0,0,0.1,0,0.1v0.7c0,0.8,0.3,1.5,0.8,2.1c-1,0.2-2,0.7-2.8,1.3l-5.1,3.8
				c-0.1,0.1-0.2,0.2-0.3,0.3c-0.1-0.1-0.2-0.2-0.3-0.3L9.1,7.1c-0.8-0.6-1.8-1-2.8-1.3c0.5-0.6,0.8-1.3,0.8-2.1V3
				c0-1.7-1.3-3.1-3-3.1s-3.1,1.3-3.1,3c0,0,0,0.1,0,0.1v0.7c0,0.9,0.4,1.7,1.1,2.3C0.8,6.7,0,8.1,0,9.5v7.8c0,0.3,0.3,0.6,0.6,0.6
				h7.1c0.3,0,0.6-0.3,0.6-0.6v-5.2l3.7,2.2c0.6,0.4,1.5,0.4,2.1,0c0.2-0.1,0.4-0.2,0.5-0.4c0.1,0.2,0.3,0.3,0.5,0.4
				c0.7,0.4,1.5,0.4,2.1,0l3.7-2.2v5.2c0,0.3,0.3,0.6,0.6,0.6h7.1c0.3,0,0.6-0.3,0.6-0.6v-2.1c0-0.3-0.3-0.6-0.6-0.6
				c-0.3,0-0.6,0.3-0.6,0.6v1.5H22v-5.2c0,0,0-0.1,0-0.1l0.6-0.4c0.3-0.2,0.3-0.5,0.2-0.8c-0.2-0.2-0.5-0.3-0.7-0.2l-5.5,3.3
				c-0.5,0.3-1,0.1-1.3-0.3c-0.1-0.1-0.1-0.3-0.1-0.5c0-0.3,0.1-0.6,0.4-0.8L20.6,8c1.1-0.8,2.4-1.2,3.8-1.2h0.8
				c1.5,0,2.7,1.2,2.7,2.7v1C27.9,10.9,28.2,11.1,28.5,11.1z M2.2,3c0-1.1,0.9-1.9,1.9-1.9S6,2,6,3l0,0v0.7c0,1.1-0.9,1.9-1.9,1.9
				S2.2,4.8,2.2,3.8V3z M13.5,13.4c-0.3,0.2-0.7,0.2-1,0l-5.5-3.3c-0.3-0.2-0.6,0-0.8,0.2c-0.1,0.3-0.1,0.6,0.2,0.7l0.6,0.4
				c0,0,0,0.1,0,0.1v5.2H1.1V9.5c0-1.5,1.2-2.7,2.7-2.7h0.8C6,6.8,7.3,7.2,8.4,8l5.1,3.8c0.2,0.2,0.4,0.5,0.4,0.8
				C14,12.9,13.8,13.2,13.5,13.4z M26.9,3.8c0,1.1-0.9,1.9-1.9,1.9s-1.9-0.9-1.9-1.9V3c0-1.1,0.9-1.9,1.9-1.9S26.9,2,26.9,3V3.8z"/>
		</g>
	</g>
	<g id="Group_172" transform="translate(27.934 23.471)">
		<g id="Group_171">
			<path id="Path_251" class="st0" d="M1,0.2c-0.2-0.2-0.6-0.2-0.8,0c-0.2,0.2-0.2,0.6,0,0.8C0.4,1.2,0.7,1.2,1,1
				c0.1-0.1,0.2-0.3,0.2-0.4C1.1,0.4,1.1,0.3,1,0.2z"/>
		</g>
	</g>
	<g id="Group_174" transform="translate(6.089 0.022)">
		<g id="Group_173">
			<path id="Path_252" class="st0" d="M17.4,0h-1.9c-0.3,0-0.6,0.3-0.6,0.6c0,0.3,0.3,0.6,0.6,0.6H16L9.4,7.8L5,3.4
				c-0.2-0.2-0.6-0.2-0.8,0l-4.1,4C0,7.7,0,8.1,0.2,8.3c0.2,0.2,0.5,0.2,0.7,0l3.6-3.6L9,9c0.2,0.2,0.6,0.2,0.8,0l7-7v0.5
				C16.8,2.8,17,3,17.4,3s0.6-0.3,0.6-0.6V0.6C17.9,0.3,17.7,0,17.4,0z"/>
		</g>
	</g>
	<g id="Group_176" transform="translate(4.656 8.763)">
		<g id="Group_175">
			<path id="Path_253" class="st0" d="M1,0.2c-0.2-0.2-0.6-0.2-0.8,0s-0.2,0.6,0,0.8C0.4,1.2,0.7,1.2,1,1c0.1-0.1,0.2-0.3,0.2-0.4
				C1.1,0.4,1.1,0.3,1,0.2z"/>
		</g>
	</g>
</g>
</svg>
