<svg xmlns="http://www.w3.org/2000/svg" width="42" height="42" viewBox="0 0 42 42">
  <g id="Group_287" data-name="Group 287" transform="translate(1 1)">
    <path id="Path_338" data-name="Path 338" d="M66.917,146.709a.935.935,0,0,1-.917-.952v-1.9C66,142.77,69.03,141,71.5,141h0c2.473,0,5.5,1.77,5.5,2.855v1.9a.935.935,0,0,1-.917.952Z" transform="translate(-51.502 -131.475)" fill="none" stroke="#8dbb2b" stroke-linecap="round" stroke-miterlimit="10" stroke-width="2"/>
    <path id="Path_339" data-name="Path 339" d="M71.668,140.515a3.776,3.776,0,0,0,3.668-4.077v-1.361a3.688,3.688,0,1,0-7.335,0v1.361A3.776,3.776,0,0,0,71.668,140.515Z" transform="translate(-51.668 -131)" fill="none" stroke="#8dbb2b" stroke-linecap="round" stroke-miterlimit="10" stroke-width="2"/>
    <path id="Path_340" data-name="Path 340" d="M66.917,172.709a.935.935,0,0,1-.917-.952v-1.9C66,168.77,69.03,167,71.5,167h0c2.473,0,5.5,1.77,5.5,2.855v1.9a.935.935,0,0,1-.917.952Z" transform="translate(-51.502 -132.709)" fill="none" stroke="#8dbb2b" stroke-linecap="round" stroke-miterlimit="10" stroke-width="2"/>
    <path id="Path_341" data-name="Path 341" d="M71.668,166.515a3.776,3.776,0,0,0,3.668-4.077v-1.361a3.688,3.688,0,1,0-7.335,0v1.361A3.776,3.776,0,0,0,71.668,166.515Z" transform="translate(-51.668 -132.225)" fill="none" stroke="#8dbb2b" stroke-linecap="round" stroke-miterlimit="10" stroke-width="2"/>
    <path id="Path_342" data-name="Path 342" d="M50.917,160.709a.935.935,0,0,1-.917-.952v-1.9C50,156.77,53.03,155,55.5,155h0c2.473,0,5.5,1.77,5.5,2.855v1.9a.935.935,0,0,1-.917.952Z" transform="translate(-50 -132.14)" fill="none" stroke="#8dbb2b" stroke-linecap="round" stroke-miterlimit="10" stroke-width="2"/>
    <path id="Path_343" data-name="Path 343" d="M55.668,154.515a3.776,3.776,0,0,0,3.668-4.077v-1.361a3.688,3.688,0,1,0-7.335,0v1.361A3.776,3.776,0,0,0,55.668,154.515Z" transform="translate(-50.166 -131.663)" fill="none" stroke="#8dbb2b" stroke-linecap="round" stroke-miterlimit="10" stroke-width="2"/>
    <path id="Path_344" data-name="Path 344" d="M82.917,160.709a.935.935,0,0,1-.917-.952v-1.9C82,156.77,85.03,155,87.5,155h0c2.473,0,5.5,1.77,5.5,2.855v1.9a.935.935,0,0,1-.917.952Z" transform="translate(-53.003 -132.14)" fill="none" stroke="#8dbb2b" stroke-linecap="round" stroke-miterlimit="10" stroke-width="2"/>
    <path id="Path_345" data-name="Path 345" d="M87.668,154.515a3.776,3.776,0,0,0,3.668-4.077v-1.361a3.688,3.688,0,1,0-7.335,0v1.361A3.776,3.776,0,0,0,87.668,154.515Z" transform="translate(-53.169 -131.663)" fill="none" stroke="#8dbb2b" stroke-linecap="round" stroke-miterlimit="10" stroke-width="2"/>
    <path id="Path_346" data-name="Path 346" d="M56.506,141.677a17.6,17.6,0,0,1,7.787-6.346" transform="translate(-50.54 -131.21)" fill="none" stroke="#8dbb2b" stroke-linecap="round" stroke-miterlimit="10" stroke-width="2"/>
    <path id="Path_347" data-name="Path 347" d="M62.461,169.46A17.736,17.736,0,0,1,56.506,164" transform="translate(-50.54 -132.564)" fill="none" stroke="#8dbb2b" stroke-linecap="round" stroke-miterlimit="10" stroke-width="2"/>
    <path id="Path_348" data-name="Path 348" d="M86.787,141.677A17.591,17.591,0,0,0,79,135.331" transform="translate(-52.754 -131.21)" fill="none" stroke="#8dbb2b" stroke-linecap="round" stroke-miterlimit="10" stroke-width="2"/>
    <path id="Path_349" data-name="Path 349" d="M81,169.46A17.728,17.728,0,0,0,86.954,164" transform="translate(-52.92 -132.564)" fill="none" stroke="#8dbb2b" stroke-linecap="round" stroke-miterlimit="10" stroke-width="2"/>
  </g>
</svg>
