<svg xmlns="http://www.w3.org/2000/svg" xmlns:xlink="http://www.w3.org/1999/xlink" width="40" height="40" viewBox="0 0 40 40">
  <defs>
    <clipPath id="clip-Seguridad">
      <rect width="40" height="40"/>
    </clipPath>
  </defs>
  <g id="Seguridad" clip-path="url(#clip-Seguridad)">
    <rect width="40" height="40" fill="rgba(255,255,255,0)"/>
    <path id="Trazado_387" data-name="Trazado 387" d="M603.515,843.523a.459.459,0,0,1-.227-.05c-11.428-7.68-13.663-12.364-13.663-17.861v-15.67c5.462-.135,9.07-1.631,13.809-5.727a.132.132,0,0,1,.081-.023.135.135,0,0,1,.081.023c4.74,4.1,8.349,5.592,13.79,5.717l.019,15.68c0,7.259-5.009,12.045-13.662,17.86A.452.452,0,0,1,603.515,843.523Zm-.514-36.8a20.348,20.348,0,0,1-10.973,4.719l-.742.08v14.086c0,5.589,3.076,9.693,11.756,15.684l.472.325.472-.326c8.68-5.991,11.756-10.1,11.756-15.684V811.525l-.742-.08a20.345,20.345,0,0,1-10.973-4.719l-.513-.4Z" transform="translate(-583.083 -803.523)" fill="#8dbb2b"/>
  </g>
</svg>
